<svg xmlns="http://www.w3.org/2000/svg" width="1024" height="1536" viewBox="0 0 1024 1536" version="1.1"><path d="M 508.675 365.662 C 507.177 366.447, 505.444 366.774, 504.822 366.390 C 504.148 365.973, 503.967 366.137, 504.373 366.795 C 505.234 368.187, 501.382 370.336, 499.729 369.386 C 499.053 368.997, 498.835 369.049, 499.244 369.500 C 500.216 370.573, 496.305 373.306, 494.973 372.484 C 494.411 372.136, 494.074 372.447, 494.225 373.176 C 494.377 373.908, 493.723 374.439, 492.761 374.363 C 491.772 374.285, 491.303 374.682, 491.675 375.283 C 492.097 375.966, 491.662 376.084, 490.445 375.617 C 489.409 375.220, 488.882 375.215, 489.274 375.607 C 490.340 376.673, 486.194 379.229, 484.748 378.398 C 484.062 378.003, 483.835 378.049, 484.244 378.500 C 485.274 379.637, 481.265 382.282, 479.844 381.403 C 479.149 380.974, 478.962 381.130, 479.373 381.795 C 480.219 383.163, 476.381 385.353, 474.825 384.392 C 474.148 383.973, 473.966 384.136, 474.373 384.795 C 475.234 386.187, 471.382 388.336, 469.729 387.386 C 469.053 386.997, 468.835 387.049, 469.244 387.500 C 470.274 388.637, 466.265 391.282, 464.844 390.403 C 464.077 389.930, 463.965 390.135, 464.510 391.015 C 465.109 391.985, 464.868 392.164, 463.612 391.681 C 462.643 391.309, 462.148 391.431, 462.476 391.961 C 463.247 393.209, 459.272 395.286, 457.825 394.392 C 457.148 393.973, 456.966 394.136, 457.373 394.795 C 458.219 396.163, 454.381 398.353, 452.825 397.392 C 452.167 396.985, 451.965 397.135, 452.344 397.748 C 453.157 399.063, 446.245 403.269, 444.769 402.357 C 444.079 401.931, 443.986 402.168, 444.510 403.015 C 445.103 403.975, 444.873 404.165, 443.676 403.706 C 442.657 403.315, 442.115 403.537, 442.262 404.286 C 442.393 404.954, 441.717 405.438, 440.761 405.363 C 439.804 405.288, 439.256 405.606, 439.543 406.070 C 440.270 407.246, 434.197 410.239, 432.816 409.386 C 432.148 408.973, 431.968 409.139, 432.373 409.795 C 433.178 411.097, 429.416 413.375, 427.955 412.472 C 427.402 412.131, 427.074 412.447, 427.225 413.176 C 427.377 413.908, 426.723 414.439, 425.761 414.363 C 424.804 414.288, 424.217 414.542, 424.456 414.929 C 425.141 416.038, 419.128 419.197, 417.843 418.403 C 417.149 417.974, 416.962 418.130, 417.373 418.795 C 418.219 420.163, 414.381 422.353, 412.825 421.392 C 412.150 420.975, 411.966 421.136, 412.370 421.789 C 413.244 423.204, 404.472 428.410, 402.875 427.423 C 402.170 426.987, 401.955 427.118, 402.344 427.748 C 403.157 429.063, 396.245 433.269, 394.769 432.357 C 394.143 431.970, 393.979 432.157, 394.378 432.803 C 395.228 434.178, 389.396 437.363, 387.816 436.386 C 387.179 435.993, 386.966 436.137, 387.326 436.718 C 387.682 437.295, 381.944 441.379, 374.230 446.038 C 293.478 494.807, 217.071 541.036, 197.642 552.881 C 191.669 556.521, 184.869 560.625, 182.530 562 C 180.191 563.375, 177.202 565.303, 175.888 566.285 C 171.371 569.662, 188.584 560.134, 206.029 549.601 C 221.107 540.497, 234.257 532.709, 241.500 528.593 C 242.600 527.967, 248 524.785, 253.500 521.521 C 259 518.257, 266.052 514.217, 269.172 512.543 C 272.292 510.870, 278.952 507.048, 283.973 504.051 C 288.995 501.054, 293.867 498.507, 294.801 498.391 C 296.260 498.209, 296.236 498.343, 294.629 499.339 C 288.859 502.919, 286.523 504.810, 286.716 505.746 C 286.840 506.348, 286.027 506.558, 284.809 506.240 C 283.436 505.881, 282.923 506.066, 283.356 506.767 C 283.724 507.362, 283.246 507.999, 282.294 508.182 C 280.854 508.459, 281.059 508.974, 283.522 511.258 C 285.149 512.766, 287.159 513.993, 287.990 513.985 C 289.309 513.971, 289.314 513.852, 288.029 513.039 C 287.220 512.527, 286.783 511.884, 287.058 511.609 C 287.333 511.334, 288.220 511.526, 289.029 512.035 C 290.303 512.838, 290.254 513.397, 288.662 516.216 C 286.853 519.418, 286.854 519.442, 288.740 517.735 C 291.359 515.365, 292.932 515.544, 292.255 518.135 C 291.777 519.960, 291.960 520.122, 293.514 519.252 C 294.626 518.630, 296.488 518.566, 298.308 519.088 C 299.945 519.558, 301.740 519.661, 302.297 519.317 C 302.874 518.960, 303.002 519.188, 302.593 519.849 C 302.178 520.522, 300.622 520.786, 298.882 520.479 C 297.235 520.189, 295.350 520.289, 294.694 520.700 C 294.037 521.112, 292.411 521.599, 291.080 521.782 C 288.991 522.069, 288.837 521.901, 289.953 520.557 C 291.947 518.154, 289.981 518.716, 287.867 521.153 C 285.837 523.494, 285.462 524.450, 286.931 523.543 C 287.443 523.226, 288.144 523.425, 288.490 523.984 C 288.835 524.543, 289.568 525, 290.118 525 C 290.668 525, 290.840 524.550, 290.500 524 C 289.605 522.551, 291.221 522.767, 295.628 524.686 C 297.758 525.613, 299.837 526.288, 300.250 526.186 C 300.952 526.012, 301.387 527.548, 301.118 529.250 C 300.815 531.175, 302.913 529.728, 303.294 527.750 C 303.719 525.543, 303.730 525.545, 303.864 527.890 C 303.939 529.204, 303.213 530.861, 302.250 531.572 C 300.807 532.639, 300.730 533.096, 301.809 534.183 C 302.891 535.271, 303.008 535.208, 302.480 533.823 C 301.973 532.489, 302.285 532.262, 304.006 532.712 C 305.595 533.127, 305.823 533.491, 304.863 534.084 C 302.627 535.467, 304.578 536.111, 307.563 534.976 C 310.372 533.908, 310.384 533.919, 308.568 535.924 C 307.559 537.040, 306.343 537.712, 305.866 537.417 C 305.390 537.123, 305 537.411, 305 538.058 C 305 538.741, 305.837 539.014, 306.999 538.711 C 308.098 538.423, 309.269 538.626, 309.600 539.162 C 309.931 539.698, 310.782 539.914, 311.491 539.642 C 313.430 538.898, 317.254 542.919, 316.684 545.101 C 316.302 546.559, 316.556 546.789, 317.848 546.156 C 320.398 544.907, 326.252 544.783, 325.503 545.995 C 325.150 546.566, 324.446 546.776, 323.939 546.462 C 323.431 546.148, 322.225 546.352, 321.258 546.915 C 319.743 547.797, 319.872 547.943, 322.191 547.970 C 325.523 548.007, 326.990 549.955, 323.809 550.118 C 322.539 550.184, 321.163 550.184, 320.750 550.118 C 320.337 550.053, 320 550.436, 320 550.969 C 320 551.501, 319.400 551.707, 318.667 551.426 C 317.921 551.139, 317.333 551.575, 317.333 552.413 C 317.333 553.237, 317.808 553.619, 318.388 553.260 C 318.968 552.902, 320.726 552.706, 322.294 552.826 C 324.369 552.984, 324.937 552.697, 324.380 551.771 C 323.811 550.825, 324.037 550.841, 325.264 551.836 C 326.171 552.571, 327.351 552.901, 327.887 552.570 C 328.423 552.238, 329.187 552.494, 329.585 553.138 C 330.068 553.919, 329.873 554.039, 329 553.500 C 328.134 552.965, 327.932 553.082, 328.405 553.845 C 328.797 554.480, 329.751 555, 330.524 555 C 331.297 555, 332.444 555.961, 333.072 557.135 C 333.985 558.841, 334.391 558.992, 335.092 557.885 C 335.711 556.908, 335.974 557.369, 335.985 559.450 C 335.996 561.583, 336.302 562.098, 337.093 561.307 C 338.377 560.023, 336.473 555.590, 335.022 556.487 C 334.539 556.785, 333.854 556.116, 333.500 555 C 333.146 553.884, 332.438 553.229, 331.928 553.544 C 331.418 553.860, 331 553.641, 331 553.059 C 331 552.477, 331.350 552, 331.777 552 C 332.850 552, 339 557.700, 339 558.694 C 339 559.699, 344.216 559.603, 345.893 558.566 C 347.805 557.384, 348.441 558.735, 347.152 561.240 C 346 563.480, 345.994 563.478, 346.547 561 C 347.089 558.565, 347.062 558.552, 345.517 560.488 C 344.095 562.272, 344.089 562.592, 345.466 563.598 C 346.310 564.216, 347 565.233, 347 565.860 C 347 566.487, 347.408 567, 347.906 567 C 348.405 567, 348.577 566.100, 348.290 565 C 347.920 563.588, 348.259 563, 349.442 563 C 350.364 563, 350.881 563.383, 350.592 563.851 C 350.303 564.319, 351.176 566.206, 352.533 568.045 C 353.890 569.884, 355 570.819, 355 570.123 C 355 569.427, 354.325 568.182, 353.500 567.357 C 352.675 566.532, 352 564.957, 352 563.857 C 352 559.793, 355.136 564.820, 356.626 571.273 C 357.417 574.698, 358.889 579.816, 359.898 582.646 C 362.164 589.002, 371.508 606.534, 376.724 614.219 C 391.624 636.167, 415.364 653.426, 441.941 661.630 C 471.237 670.674, 475.769 672.732, 484.303 680.866 C 490.528 686.799, 493.816 692.283, 497.573 703 C 500.214 710.536, 500.703 709.119, 498.448 700.460 C 496.548 693.165, 493.045 687.031, 487.222 680.806 C 479.024 672.042, 470.738 668.063, 444.697 660.387 C 411.748 650.674, 387.483 630.986, 371.087 600.660 C 362.299 584.408, 355.937 563.053, 354.738 545.783 L 354.341 540.066 365.420 540.572 C 387.741 541.589, 400.175 543.564, 416.316 548.656 C 440.440 556.266, 465.419 574.743, 482.345 597.500 C 490.395 608.322, 500.566 628.498, 504.023 640.500 C 506.455 648.942, 508.317 653, 509.758 653 C 510.966 653, 511.012 653.281, 510 654.500 C 508.244 656.616, 510.359 656.378, 512.223 654.250 C 513.616 652.660, 513.539 652.273, 511.378 650.021 C 510.070 648.658, 509 648.095, 509 648.771 C 509 649.447, 509.477 650, 510.059 650 C 510.641 650, 510.802 650.511, 510.417 651.135 C 509.964 651.868, 509.247 651.425, 508.393 649.885 C 506.643 646.728, 506.683 646, 508.607 646 C 509.662 646, 510.005 645.456, 509.607 644.418 C 509.273 643.548, 509 642.662, 509 642.450 C 509 642.237, 508.325 642.322, 507.500 642.638 C 506.418 643.054, 506.022 642.558, 506.079 640.857 C 506.122 639.561, 506.385 639.063, 506.662 639.750 C 506.940 640.438, 507.654 641, 508.250 641 C 508.846 641, 509.060 640.727, 508.727 640.393 C 508.393 640.060, 508.643 639.227, 509.282 638.544 C 510.194 637.567, 510.717 637.827, 511.716 639.754 C 512.416 641.104, 512.743 642.606, 512.443 643.093 C 512.142 643.579, 512.592 643.710, 513.442 643.384 C 514.293 643.057, 514.759 642.419, 514.478 641.964 C 514.197 641.510, 514.394 640.875, 514.915 640.553 C 516.378 639.648, 516.859 641.253, 515.891 643.814 C 515.410 645.087, 514.568 645.851, 514.020 645.512 C 513.444 645.156, 513.274 645.551, 513.618 646.448 C 513.946 647.302, 514.857 648, 515.642 648 C 516.800 648, 516.851 648.427, 515.913 650.250 C 515.189 651.657, 515.157 652.125, 515.828 651.499 C 516.660 650.723, 521.290 638.353, 523.314 631.500 C 523.476 630.950, 524.390 629.024, 525.345 627.221 C 526.300 625.417, 526.831 623.536, 526.525 623.040 C 526.218 622.544, 526.381 621.883, 526.887 621.570 C 527.392 621.258, 529.351 617.959, 531.241 614.240 C 536.168 604.541, 546.218 590.779, 555.242 581.373 C 580.260 555.297, 616.944 541, 658.837 541 L 670.302 541 669.694 550.250 C 667.893 577.665, 657.331 602.129, 637.728 624.291 C 631.165 631.711, 619.253 641.640, 610.773 646.759 C 603.258 651.295, 588.180 657.301, 572.165 662.137 C 553.561 667.756, 546.766 671.151, 539.497 678.462 C 533.514 684.480, 526.847 695.948, 525.525 702.500 C 525.114 704.533, 525.520 704.038, 526.782 700.963 C 529.260 694.928, 534.312 686.002, 535.250 686.001 C 535.663 686, 536 685.367, 536 684.593 C 536 680.681, 556.348 668.275, 566.493 666.002 C 583.010 662.300, 604.955 653.174, 617 644.998 C 620.025 642.945, 622.736 641.318, 623.023 641.383 C 624.428 641.698, 642.946 623.015, 646.691 617.504 C 648.676 614.582, 649.426 614.108, 650.565 615.054 C 651.342 615.699, 651.695 616.684, 651.350 617.243 C 651.003 617.804, 651.344 618.052, 652.111 617.796 C 652.875 617.542, 653.501 616.696, 653.503 615.917 C 653.504 615.137, 654.179 614.457, 655.003 614.403 C 657.437 614.246, 660.027 612.853, 659.493 611.988 C 659.220 611.547, 660.007 611.451, 661.241 611.773 C 663.310 612.314, 663.214 612.476, 659.992 613.858 C 658.071 614.681, 655.825 615.288, 655 615.207 C 654.015 615.109, 653.930 615.249, 654.750 615.612 C 655.438 615.917, 656.014 616.917, 656.030 617.833 C 656.058 619.362, 656.143 619.359, 657.057 617.792 C 657.665 616.749, 658.691 616.328, 659.690 616.711 C 660.786 617.132, 661.089 616.953, 660.605 616.170 C 660.195 615.506, 660.448 614.990, 661.191 614.978 C 661.911 614.966, 663.597 614.112, 664.938 613.081 C 666.279 612.051, 667.967 611.434, 668.688 611.711 C 669.410 611.987, 670 611.716, 670 611.107 C 670 610.498, 669.475 610, 668.833 610 C 668.192 610, 667.937 609.730, 668.267 609.400 C 668.597 609.070, 669.459 609.175, 670.183 609.635 C 670.908 610.094, 671.913 610.476, 672.417 610.485 C 672.921 610.493, 673.542 611.125, 673.796 611.889 C 674.077 612.732, 673.815 613.004, 673.130 612.580 C 672.508 612.196, 672 612.359, 672 612.941 C 672 614.508, 674.568 614.225, 676 612.500 C 676.685 611.675, 677.955 611, 678.822 611 C 680.049 611, 680.133 610.733, 679.200 609.800 C 677.619 608.219, 677.655 606.666, 679.250 607.666 C 679.938 608.097, 681.400 608.378, 682.500 608.290 C 683.823 608.184, 683.955 608.293, 682.889 608.611 C 682.003 608.876, 680.780 610.188, 680.170 611.527 C 679.449 613.109, 678.525 613.755, 677.530 613.373 C 676.689 613.050, 676 613.284, 676 613.893 C 676 614.502, 676.675 615, 677.500 615 C 678.325 615, 679.900 615.900, 681 617 C 682.100 618.100, 683.536 619, 684.191 619 C 684.846 619, 684.600 618.428, 683.645 617.729 C 682.072 616.580, 682.248 616.304, 685.487 614.836 C 689.013 613.238, 689.058 613.246, 688.480 615.357 C 688.019 617.043, 688.275 616.913, 689.683 614.742 C 690.667 613.226, 692.273 611.731, 693.251 611.420 C 694.229 611.110, 694.829 610.532, 694.584 610.136 C 694.339 609.739, 694.998 609.350, 696.048 609.271 C 697.098 609.192, 697.914 609.436, 697.860 609.814 C 697.606 611.613, 698.194 611.877, 700.500 611 C 702.144 610.375, 703 610.395, 703 611.059 C 703 611.615, 704.350 610.688, 706 609 C 708.383 606.562, 709.378 606.132, 710.831 606.909 C 712.129 607.604, 713.509 607.442, 715.580 606.351 C 717.186 605.506, 719.615 604.603, 720.979 604.346 C 722.342 604.089, 723.780 603.356, 724.174 602.718 C 724.569 602.080, 725.205 601.872, 725.588 602.255 C 725.971 602.638, 725.707 603.648, 725 604.500 C 724.293 605.352, 723.483 605.816, 723.200 605.533 C 722.916 605.249, 722.080 605.519, 721.342 606.131 C 720.387 606.924, 720 606.931, 720 606.154 C 720 605.540, 719.260 605.347, 718.308 605.712 C 717.005 606.212, 717.394 606.623, 720.003 607.501 C 722.140 608.220, 722.948 608.914, 722.195 609.380 C 720.513 610.419, 720.702 612.052, 722.427 611.390 C 723.212 611.088, 723.699 610.033, 723.509 609.044 C 723.187 607.373, 727.279 604.367, 729.250 604.825 C 729.663 604.921, 730 604.502, 730 603.893 C 730 603.284, 729.331 603.043, 728.514 603.356 C 727.433 603.771, 727.081 603.286, 727.223 601.575 C 727.337 600.193, 727.918 599.415, 728.632 599.689 C 729.299 599.945, 730.780 599.220, 731.923 598.077 C 733.404 596.596, 734 596.406, 734 597.417 C 734 598.196, 733.438 599.060, 732.750 599.338 C 731.789 599.726, 731.802 599.860, 732.809 599.921 C 734.300 600.011, 733.413 602, 731.882 602 C 731.332 602, 731.160 601.550, 731.500 601 C 732.252 599.783, 730.990 599.720, 729.155 600.883 C 728.149 601.521, 728.401 601.870, 730.155 602.270 C 733.061 602.933, 736.119 602.662, 737.855 601.590 C 738.603 601.127, 739.656 601.256, 740.287 601.887 C 741.693 603.293, 743 603.319, 743 601.941 C 743 601.359, 742.601 601.129, 742.113 601.430 C 741.626 601.731, 740.671 601.308, 739.991 600.489 C 738.956 599.242, 739.140 598.998, 741.128 598.985 C 742.824 598.974, 743.117 598.726, 742.155 598.117 C 739.988 596.744, 745.405 595.823, 748.570 597.027 C 750.625 597.808, 751.669 597.721, 752.890 596.666 C 753.775 595.901, 755.850 595.019, 757.500 594.707 C 759.150 594.395, 761.400 593.842, 762.500 593.477 C 764.164 592.925, 764.080 593.175, 762 594.963 L 759.500 597.113 763.752 595.035 C 767.773 593.070, 768.144 593.048, 770.551 594.626 C 771.952 595.543, 773.023 595.891, 772.931 595.397 C 772.507 593.128, 773.202 592.893, 775.750 594.444 L 778.500 596.119 776.139 594.059 C 773.546 591.797, 772 591.423, 772 593.059 C 772 593.641, 771.570 593.852, 771.044 593.527 C 770.518 593.202, 770.335 592.163, 770.638 591.218 C 771.090 589.807, 771.005 589.760, 770.160 590.953 C 769.555 591.807, 767.354 592.446, 764.816 592.504 C 762.442 592.558, 759.825 592.848, 759 593.149 C 751.779 595.784, 750.997 595.875, 752.022 593.959 C 752.568 592.938, 753.909 591.477, 755.001 590.712 C 756.094 589.947, 756.769 589.102, 756.501 588.835 C 756.234 588.567, 757.319 588.540, 758.913 588.774 C 761.596 589.168, 766.766 586.554, 769.344 583.500 C 769.835 582.918, 769.953 583.232, 769.626 584.250 C 769.270 585.355, 769.582 586, 770.472 586 C 772.381 586, 773.319 584.294, 771.756 583.664 C 770.857 583.302, 770.839 583.135, 771.691 583.079 C 773.840 582.936, 774.345 585.275, 772.462 586.652 C 770.256 588.265, 771.317 588.436, 774.143 586.923 C 775.250 586.331, 775.922 585.239, 775.637 584.496 C 775.048 582.962, 777.682 580.348, 778.745 581.412 C 779.128 581.795, 778.845 582.478, 778.114 582.929 C 777.221 583.482, 777.136 583.966, 777.857 584.411 C 778.445 584.775, 779.843 584.157, 780.964 583.036 C 783.048 580.952, 785.612 580.200, 784.500 582 C 784.160 582.550, 783.121 583.036, 782.191 583.079 C 781.252 583.123, 781.029 583.373, 781.689 583.642 C 782.343 583.908, 784.011 583.384, 785.395 582.477 C 786.779 581.570, 788.408 581.134, 789.013 581.508 C 790.731 582.570, 795 582.822, 795 581.862 C 795 581.388, 794.550 581, 794 581 C 793.450 581, 793 580.502, 793 579.893 C 793 579.284, 793.631 579.028, 794.401 579.324 C 795.235 579.644, 796.008 579.079, 796.308 577.931 C 796.832 575.927, 795.551 575.224, 794.658 577.025 C 794.379 577.589, 794.267 577.476, 794.411 576.775 C 794.555 576.074, 795.440 575.496, 796.378 575.491 C 797.316 575.486, 798.402 575.036, 798.792 574.491 C 799.799 573.082, 802.732 572.758, 803.484 573.973 C 803.833 574.538, 804.654 574.986, 805.309 574.968 C 805.964 574.951, 805.702 574.331, 804.727 573.591 C 803.062 572.328, 803.092 572.201, 805.227 571.514 C 806.477 571.112, 808.063 570.852, 808.750 570.935 C 810.274 571.121, 810.407 569.369, 808.937 568.461 C 808.352 568.100, 807.079 568.523, 806.108 569.402 C 805.137 570.281, 803.954 571, 803.480 571 C 803.006 571, 803.491 570.302, 804.559 569.448 C 806.454 567.933, 806.449 567.910, 804.334 568.489 C 803.143 568.815, 801.879 568.613, 801.525 568.041 C 801.157 567.444, 801.868 566.946, 803.191 566.872 C 804.461 566.802, 806.513 566.639, 807.750 566.509 C 809.099 566.368, 810 566.819, 810 567.637 C 810 568.386, 810.477 569, 811.059 569 C 811.641 569, 811.849 568.565, 811.521 568.034 C 811.193 567.503, 812.511 566.040, 814.450 564.784 C 818.193 562.359, 818.941 561, 816.531 561 C 815.624 561, 815.287 560.415, 815.650 559.471 C 816.157 558.149, 816.416 558.183, 817.557 559.721 C 818.674 561.224, 819.197 561.305, 820.939 560.242 C 822.159 559.496, 823 559.394, 823 559.992 C 823 560.546, 822.475 561, 821.833 561 C 820.650 561, 821.607 562.470, 822.833 562.535 C 823.200 562.555, 824.444 563.096, 825.597 563.739 C 827.180 564.621, 827.976 564.624, 828.847 563.753 C 829.718 562.882, 830.017 563.077, 830.070 564.550 C 830.139 566.449, 830.163 566.448, 831 564.500 C 832.343 561.376, 832.175 561, 829.441 561 C 827.761 561, 827.127 561.397, 827.595 562.155 C 828.038 562.870, 827.870 563.038, 827.155 562.595 C 825.009 561.269, 825.982 560.001, 829.250 559.864 C 831.470 559.771, 831.810 559.593, 830.323 559.304 C 828.330 558.916, 824.884 556, 826.417 556 C 827.647 556, 834.780 559.922, 836.282 561.424 C 837.101 562.244, 840.017 563.946, 842.760 565.207 C 845.504 566.468, 847.693 567.907, 847.624 568.405 C 847.556 568.902, 848.288 569.425, 849.250 569.566 C 852.420 570.031, 851.076 567.148, 846.750 564.201 C 844.413 562.609, 813.807 544.103, 778.738 523.077 C 743.669 502.050, 715.230 484.436, 715.540 483.935 C 715.850 483.433, 715.518 483.237, 714.802 483.498 C 713.075 484.128, 697.779 475.167, 698.524 473.961 C 698.843 473.445, 698.402 473.292, 697.544 473.621 C 695.546 474.388, 690.714 471.271, 691.623 469.802 C 692.032 469.140, 691.855 468.972, 691.184 469.386 C 689.803 470.239, 683.730 467.246, 684.457 466.070 C 684.744 465.606, 684.196 465.288, 683.239 465.363 C 682.283 465.438, 681.595 464.990, 681.711 464.368 C 681.827 463.745, 681.152 463.295, 680.211 463.368 C 679.270 463.440, 678.607 462.954, 678.738 462.286 C 678.885 461.537, 678.343 461.315, 677.324 461.706 C 676.127 462.165, 675.897 461.975, 676.490 461.015 C 677.030 460.143, 676.922 459.930, 676.175 460.392 C 674.619 461.353, 670.781 459.163, 671.627 457.795 C 672.034 457.136, 671.852 456.973, 671.175 457.392 C 669.619 458.353, 665.781 456.163, 666.627 454.795 C 667.038 454.130, 666.851 453.974, 666.157 454.403 C 664.688 455.311, 658.908 451.958, 659.709 450.662 C 660.040 450.126, 659.792 450.010, 659.156 450.403 C 657.920 451.167, 653.636 448.697, 654.573 447.760 C 654.881 447.452, 654.316 447.268, 653.317 447.350 C 652.286 447.435, 651.619 446.927, 651.775 446.176 C 651.926 445.447, 651.589 445.136, 651.027 445.484 C 649.879 446.193, 645.697 443.636, 646.573 442.760 C 646.881 442.452, 646.316 442.268, 645.317 442.350 C 644.317 442.433, 643.607 441.954, 643.738 441.286 C 643.885 440.537, 643.343 440.315, 642.324 440.706 C 641.127 441.165, 640.897 440.975, 641.490 440.015 C 642.030 439.143, 641.922 438.930, 641.175 439.392 C 639.728 440.286, 635.753 438.209, 636.524 436.961 C 636.852 436.431, 636.357 436.309, 635.388 436.681 C 634.132 437.164, 633.891 436.985, 634.490 436.015 C 635.040 435.127, 634.923 434.930, 634.136 435.416 C 632.593 436.370, 625.794 432.142, 626.648 430.760 C 627.035 430.135, 626.838 429.982, 626.175 430.392 C 624.728 431.286, 620.753 429.209, 621.524 427.961 C 621.852 427.431, 621.357 427.309, 620.388 427.681 C 619.132 428.164, 618.891 427.985, 619.490 427.015 C 620.035 426.135, 619.923 425.930, 619.156 426.403 C 617.735 427.282, 613.726 424.637, 614.756 423.500 C 615.165 423.049, 614.938 423.003, 614.252 423.398 C 612.934 424.156, 608.613 421.720, 609.573 420.760 C 609.881 420.452, 609.316 420.267, 608.317 420.350 C 607.286 420.435, 606.619 419.927, 606.775 419.176 C 606.926 418.447, 606.602 418.128, 606.054 418.467 C 604.693 419.308, 598.790 416.148, 599.519 414.969 C 599.852 414.430, 599.365 414.306, 598.388 414.681 C 597.308 415.096, 596.914 414.948, 597.325 414.283 C 597.697 413.682, 597.228 413.285, 596.239 413.363 C 595.283 413.438, 594.595 412.990, 594.711 412.368 C 594.827 411.745, 594.152 411.295, 593.211 411.368 C 592.270 411.440, 591.607 410.954, 591.738 410.286 C 591.885 409.537, 591.343 409.315, 590.324 409.706 C 589.297 410.100, 588.919 409.940, 589.325 409.283 C 589.697 408.682, 589.228 408.285, 588.239 408.363 C 587.283 408.438, 586.607 407.954, 586.738 407.286 C 586.885 406.537, 586.343 406.315, 585.324 406.706 C 584.223 407.128, 583.911 406.953, 584.388 406.181 C 584.870 405.401, 584.544 405.238, 583.388 405.681 C 582.132 406.164, 581.891 405.985, 582.490 405.015 C 583.035 404.135, 582.923 403.930, 582.156 404.403 C 580.920 405.167, 576.636 402.697, 577.573 401.760 C 577.881 401.452, 577.316 401.268, 576.317 401.350 C 575.286 401.435, 574.619 400.927, 574.775 400.176 C 574.926 399.447, 574.589 399.136, 574.027 399.484 C 572.879 400.193, 568.697 397.636, 569.573 396.760 C 569.881 396.452, 569.316 396.267, 568.317 396.350 C 567.317 396.433, 566.607 395.954, 566.738 395.286 C 566.885 394.537, 566.343 394.315, 565.324 394.706 C 564.223 395.128, 563.911 394.953, 564.388 394.181 C 564.870 393.401, 564.544 393.238, 563.388 393.681 C 562.308 394.096, 561.914 393.948, 562.325 393.283 C 562.697 392.682, 562.228 392.285, 561.239 392.363 C 560.277 392.439, 559.623 391.908, 559.775 391.176 C 559.937 390.393, 559.575 390.145, 558.888 390.569 C 558.225 390.979, 556.888 390.259, 555.776 388.894 C 554.704 387.577, 554.114 387.057, 554.465 387.739 C 554.886 388.555, 554.577 388.775, 553.558 388.384 C 552.707 388.057, 552.303 387.318, 552.660 386.741 C 553.039 386.128, 552.829 385.988, 552.156 386.403 C 550.735 387.282, 546.726 384.637, 547.756 383.500 C 548.165 383.049, 547.876 383.041, 547.113 383.483 C 546.195 384.015, 545.066 383.477, 543.776 381.894 C 542.704 380.577, 542.117 380.063, 542.472 380.750 C 543.562 382.860, 542.040 382.143, 539.289 379.250 C 537.850 377.738, 536.995 377.057, 537.388 377.739 C 537.870 378.572, 537.599 378.783, 536.558 378.384 C 535.707 378.057, 535.229 377.438, 535.495 377.008 C 535.761 376.578, 535.196 376.288, 534.239 376.363 C 533.283 376.438, 532.607 375.954, 532.738 375.286 C 532.869 374.618, 532.406 374.291, 531.709 374.558 C 531.013 374.825, 529.556 374.326, 528.471 373.448 C 527.387 372.570, 527.063 372.137, 527.750 372.485 C 529.921 373.585, 529.101 372.124, 526.879 370.935 C 525.263 370.070, 524.932 370.082, 525.489 370.983 C 525.914 371.669, 524.902 371.484, 523.077 370.540 C 521.246 369.593, 520.221 368.451, 520.622 367.803 C 521.034 367.136, 520.855 366.972, 520.175 367.392 C 518.892 368.185, 514.712 366.276, 515.376 365.200 C 516.180 363.898, 511.415 364.227, 508.675 365.662 M 292 513.082 C 290.825 513.903, 290.987 513.994, 292.744 513.500 C 294.356 513.047, 294.848 513.239, 294.493 514.185 C 294.209 514.942, 295.165 516.020, 296.750 516.726 L 299.500 517.952 297.206 516.030 C 295.944 514.973, 294.966 513.758, 295.031 513.329 C 295.222 512.076, 293.624 511.946, 292 513.082 M 310 542.950 C 307.560 543.683, 307.585 543.725, 311 544.704 C 315.029 545.858, 316.145 545.541, 315.349 543.468 C 314.740 541.880, 313.850 541.794, 310 542.950 M 817.989 563.339 C 817.170 563.977, 816.369 565.400, 816.208 566.500 C 815.987 568.014, 816.142 568.165, 816.846 567.122 C 817.387 566.322, 818.307 566.072, 819.043 566.526 C 819.907 567.061, 820.061 566.907, 819.526 566.043 C 819.082 565.324, 819.278 564.446, 819.979 564.013 C 820.658 563.593, 820.823 563.009, 820.346 562.714 C 819.868 562.419, 818.808 562.700, 817.989 563.339 M 823.651 566.225 C 823.099 568.336, 824.342 569.969, 826.500 569.969 C 827.050 569.969, 826.922 569.603, 826.216 569.155 C 825.510 568.707, 825.203 567.634, 825.534 566.771 C 825.865 565.908, 825.707 564.937, 825.182 564.612 C 824.657 564.288, 823.968 565.014, 823.651 566.225 M 813.469 567.950 C 813.792 568.472, 813.131 569.395, 812 570 C 810.869 570.605, 810.238 571.576, 810.597 572.157 C 811.027 572.853, 810.473 572.968, 808.974 572.492 C 807.149 571.912, 806.818 572.084, 807.307 573.358 C 807.669 574.302, 807.223 575.351, 806.208 575.943 C 805.269 576.491, 804.976 576.953, 805.559 576.970 C 806.141 576.986, 807.491 576.339, 808.559 575.532 C 810.965 573.712, 813.388 573.534, 812.395 575.250 C 811.527 576.752, 815.897 572.181, 817.952 569.438 C 819.096 567.911, 819.106 567.765, 818.002 568.750 C 816.128 570.421, 815 570.327, 815 568.500 C 815 567.675, 814.523 567, 813.941 567 C 813.359 567, 813.146 567.427, 813.469 567.950 M 783.350 576.250 C 783.092 576.663, 783.696 577.014, 784.691 577.030 C 786.403 577.059, 786.406 577.115, 784.742 578.085 C 783.775 578.648, 782.613 578.879, 782.159 578.598 C 781.705 578.318, 781.333 578.668, 781.333 579.377 C 781.333 580.151, 782.566 580.667, 784.417 580.667 C 786.112 580.667, 786.942 580.481, 786.259 580.253 C 785.326 579.942, 785.387 579.470, 786.506 578.351 C 787.360 577.498, 788.812 577.123, 789.913 577.472 C 790.968 577.807, 792.118 577.618, 792.468 577.052 C 792.859 576.419, 792.444 576.276, 791.388 576.681 C 790.365 577.074, 789.920 576.939, 790.286 576.347 C 790.650 575.757, 789.463 575.384, 787.358 575.427 C 785.411 575.467, 783.607 575.837, 783.350 576.250 M 799.250 576.674 C 798.013 577.538, 797 578.694, 797 579.244 C 797 579.795, 797.694 579.669, 798.542 578.965 C 799.711 577.995, 800.366 577.966, 801.242 578.842 C 802.119 579.719, 801.947 580, 800.533 580 C 799.507 580, 798.947 580.281, 799.290 580.624 C 799.633 580.966, 800.659 580.961, 801.569 580.612 C 802.951 580.082, 803.010 579.717, 801.927 578.412 C 800.855 577.121, 800.879 576.689, 802.064 575.939 C 802.854 575.439, 803.050 575.047, 802.500 575.068 C 801.950 575.088, 800.487 575.811, 799.250 576.674 M 607.441 586.940 C 586.881 593.980, 572.760 602.417, 559.943 615.315 C 551.815 623.496, 538.482 642.143, 537.322 646.952 C 536.985 648.353, 535.925 650.625, 534.969 652 C 532.725 655.224, 529.830 662.163, 530.463 662.797 C 530.733 663.066, 531.274 662.434, 531.666 661.393 C 532.058 660.352, 533.917 657.083, 535.797 654.129 C 537.677 651.175, 539.303 647.575, 539.409 646.129 C 539.585 643.737, 543.262 638.013, 552.227 626.179 C 557.047 619.815, 566.583 611.168, 574.925 605.597 C 584.492 599.208, 599.239 591.768, 599.975 592.960 C 600.332 593.538, 601.115 593.539, 602.026 592.963 C 603.318 592.146, 603.315 592.020, 602 591.945 C 601.175 591.898, 602.750 591.050, 605.500 590.059 C 616.125 586.233, 617.561 585.646, 619.473 584.344 C 622.723 582.130, 619.382 582.851, 607.441 586.940 M 406.550 584.904 C 407.072 585.401, 410.988 587.035, 415.250 588.534 C 419.512 590.033, 423 591.678, 423 592.189 C 423 592.700, 423.388 592.878, 423.863 592.585 C 424.771 592.023, 441.348 600.135, 443.972 602.425 C 444.812 603.159, 446.955 604.496, 448.733 605.396 C 453.085 607.601, 466.300 619.586, 472.656 627.094 C 475.492 630.444, 479.839 637.086, 482.316 641.854 C 484.793 646.622, 487.538 651.868, 488.417 653.511 C 489.296 655.155, 491.142 659.157, 492.520 662.404 C 493.898 665.651, 495.244 668.089, 495.511 667.822 C 496.719 666.614, 484.463 640.481, 478.553 631.664 C 473.227 623.717, 457.272 608.319, 448.090 602.266 C 438.242 595.772, 426.689 590.209, 415.528 586.587 C 406.967 583.809, 405.015 583.443, 406.550 584.904 M 781.758 585.575 C 781.251 586.082, 778.965 586.698, 776.750 586.923 C 776.337 586.966, 776 587.419, 776 587.930 C 776 588.500, 777.233 588.507, 779.183 587.948 C 782.462 587.007, 785.311 585, 783.367 585 C 782.798 585, 782.075 585.259, 781.758 585.575 M 764.870 588.657 C 764.311 589.330, 763.100 590.070, 762.177 590.302 C 761.255 590.535, 761.497 590.627, 762.715 590.508 C 763.933 590.388, 765.097 590.563, 765.301 590.895 C 765.505 591.228, 765.535 590.938, 765.367 590.250 C 764.974 588.634, 767.703 588.609, 768.241 590.224 C 768.466 590.898, 768.903 590.479, 769.213 589.295 C 769.654 587.608, 769.354 587.173, 767.830 587.288 C 766.760 587.368, 765.428 587.985, 764.870 588.657 M 753.331 597.250 C 752.828 597.938, 751.832 599.674, 751.116 601.108 C 750.087 603.168, 749.213 603.646, 746.951 603.383 C 743.907 603.028, 742.184 604.378, 744.138 605.585 C 744.819 606.006, 745.043 605.878, 744.673 605.280 C 744.302 604.679, 745.071 604.250, 746.518 604.250 C 747.883 604.250, 749.016 604.756, 749.035 605.375 C 749.055 605.994, 749.650 605.457, 750.357 604.182 C 751.503 602.117, 751.784 602.035, 752.944 603.432 C 753.659 604.295, 754.977 604.971, 755.872 604.937 C 757.025 604.892, 756.873 604.620, 755.352 604.007 C 752.902 603.018, 751.323 601, 753 601 C 753.615 601, 753.821 600.520, 753.459 599.933 C 753.096 599.347, 753.632 598.236, 754.650 597.465 C 755.667 596.694, 755.993 596.049, 755.372 596.032 C 754.752 596.014, 753.834 596.563, 753.331 597.250 M 744 599.059 C 744 599.641, 744.526 599.793, 745.170 599.395 C 745.957 598.909, 746.131 599.217, 745.701 600.336 C 745.350 601.251, 745.499 602, 746.031 602 C 746.564 602, 747 601.523, 747 600.941 C 747 600.359, 747.450 600.160, 748 600.500 C 748.550 600.840, 749.498 600.810, 750.107 600.434 C 750.878 599.957, 750.803 599.490, 749.857 598.890 C 747.944 597.678, 744 597.792, 744 599.059 M 431 599.334 C 431 599.832, 441.545 607, 442.278 607 C 443.443 607, 437.517 601.562, 436.119 601.349 C 435.360 601.233, 434.257 600.657, 433.669 600.069 C 432.661 599.061, 431 598.604, 431 599.334 M 714.500 600.666 C 712.467 602.295, 712.896 602.256, 717.500 600.393 C 718.325 600.059, 719 600.284, 719 600.893 C 719 601.502, 718.298 602, 717.441 602 C 716.565 602, 716.179 602.480, 716.559 603.096 C 717.024 603.848, 717.707 603.721, 718.737 602.692 C 720.317 601.111, 719.708 598.978, 717.691 599.032 C 717.036 599.049, 715.600 599.785, 714.500 600.666 M 585.963 602.281 C 584.018 603.502, 581.538 605.400, 580.451 606.500 C 579.365 607.600, 576.232 610.288, 573.488 612.474 C 570.745 614.659, 565.113 619.834, 560.973 623.974 C 556.833 628.113, 555.933 629.216, 558.973 626.424 C 567.979 618.153, 577.057 610.688, 584.250 605.638 C 587.962 603.032, 591 600.697, 591 600.449 C 591 599.540, 589.413 600.117, 585.963 602.281 M 710.571 602.885 C 710.211 603.468, 708.080 604.495, 705.837 605.167 C 702.280 606.233, 701.601 606.175, 700.537 604.719 C 699.466 603.254, 699.081 603.224, 697.408 604.475 C 695.582 605.839, 695.597 605.876, 697.750 605.334 C 699.129 604.986, 700 605.222, 700 605.942 C 700 606.589, 699.550 606.840, 699 606.500 C 698.450 606.160, 698 606.343, 698 606.906 C 698 607.469, 698.906 608.415, 700.014 609.008 C 701.505 609.805, 701.960 609.782, 701.764 608.918 C 701.619 608.276, 702.063 607.544, 702.751 607.291 C 703.571 606.991, 703.782 607.406, 703.363 608.496 C 702.951 609.571, 703.716 609.241, 705.525 607.564 C 707.244 605.971, 709.003 605.184, 710.079 605.525 C 712.145 606.181, 713.667 604.267, 712.226 602.826 C 711.559 602.159, 711.007 602.179, 710.571 602.885 M 688 605.854 C 688 606.324, 686.875 607.922, 685.500 609.405 C 684.125 610.889, 683 611.823, 683 611.480 C 683 611.137, 682.296 611.561, 681.436 612.421 C 678.594 615.263, 680.928 615.854, 685.752 613.514 C 690.137 611.386, 696.127 606, 694.108 606 C 693.625 606, 692.493 607.125, 691.592 608.500 C 690.691 609.875, 689.102 611, 688.060 611 C 687.019 611, 685.940 611.563, 685.662 612.250 C 685.265 613.236, 685.141 613.231, 685.079 612.229 C 685.036 611.529, 686.138 610.439, 687.528 609.805 C 689.363 608.969, 689.706 608.430, 688.778 607.842 C 687.833 607.242, 687.940 607.027, 689.191 607.015 C 690.121 607.007, 691.160 606.550, 691.500 606 C 691.840 605.450, 691.191 605, 690.059 605 C 688.927 605, 688 605.384, 688 605.854 M 651.954 611.086 C 650.446 613.903, 651.381 614.547, 654.158 612.602 C 655.658 611.551, 655.939 610.995, 654.973 610.985 C 653.694 610.971, 653.698 610.841, 655 610 C 656.288 609.167, 656.258 609.028, 654.785 609.015 C 653.842 609.007, 652.568 609.939, 651.954 611.086 M 448.024 611.917 C 448.037 612.237, 449.885 613.850, 452.132 615.500 C 454.379 617.150, 460.862 623.337, 466.540 629.250 C 472.217 635.163, 477.203 640, 477.618 640 C 478.034 640, 477.116 638.687, 475.578 637.081 C 473.878 635.307, 473.081 633.678, 473.545 632.927 C 473.985 632.215, 473.897 631.946, 473.338 632.291 C 472.804 632.621, 468.196 628.861, 463.098 623.935 C 458 619.009, 452.955 614.511, 451.887 613.939 C 450.818 613.368, 450.162 612.547, 450.428 612.116 C 450.694 611.686, 450.257 611.333, 449.456 611.333 C 448.655 611.333, 448.011 611.596, 448.024 611.917 M 667.242 613.680 C 665.474 614.536, 664.321 615.710, 664.678 616.288 C 665.085 616.947, 664.688 617.094, 663.612 616.681 C 662.593 616.290, 662.144 616.424, 662.507 617.011 C 662.854 617.572, 661.902 618.007, 660.309 618.015 C 658.220 618.027, 657.871 618.265, 658.946 618.946 C 659.792 619.481, 661.077 619.494, 662.043 618.977 C 663.086 618.419, 664.118 618.518, 664.847 619.247 C 665.718 620.118, 666.306 620.092, 667.250 619.141 C 668.252 618.131, 668.153 618.014, 666.750 618.548 C 665.736 618.934, 665 618.748, 665 618.107 C 665 617.498, 666.237 616.993, 667.750 616.985 C 669.811 616.973, 670.136 616.739, 669.048 616.051 C 668.249 615.545, 667.167 615.397, 666.643 615.720 C 666.119 616.044, 666 615.809, 666.378 615.198 C 666.755 614.587, 667.679 614.323, 668.431 614.612 C 669.183 614.900, 670.113 614.626, 670.499 614.002 C 671.653 612.134, 670.641 612.033, 667.242 613.680 M 648.537 616.940 C 648.177 617.523, 648.389 618, 649.009 618 C 649.636 618, 649.240 619.258, 648.119 620.833 C 646.592 622.977, 646.443 623.667, 647.507 623.667 C 648.280 623.667, 648.680 623.292, 648.397 622.833 C 648.114 622.375, 648.385 622, 649 622 C 649.615 622, 649.840 621.550, 649.500 621 C 649.151 620.435, 649.970 620, 651.382 620 C 652.757 620, 654.157 619.555, 654.493 619.011 C 654.854 618.426, 654.411 618.289, 653.407 618.674 C 652.363 619.075, 651.227 618.663, 650.451 617.603 C 649.651 616.508, 648.953 616.266, 648.537 616.940 M 518.651 630.532 C 519.190 631.938, 518.977 632.205, 517.706 631.717 C 515.297 630.793, 514.607 632.719, 516.906 633.950 C 519.569 635.375, 520.318 635.270, 519.663 633.565 C 519.360 632.775, 519.586 631.971, 520.166 631.778 C 520.768 631.577, 520.520 630.847, 519.587 630.072 C 518.162 628.890, 518.043 628.949, 518.651 630.532 M 514 635.107 C 514 635.723, 513.271 635.934, 512.359 635.584 C 511.061 635.086, 510.955 635.240, 511.850 636.319 C 512.473 637.070, 512.649 638.047, 512.241 638.490 C 511.834 638.933, 512.483 639.054, 513.685 638.758 C 515.065 638.419, 516.076 638.757, 516.428 639.674 C 516.735 640.473, 517.470 640.828, 518.061 640.462 C 518.652 640.097, 518.895 639.168, 518.600 638.399 C 518.304 637.629, 518.611 636.997, 519.281 636.994 C 519.952 636.990, 519.211 636.315, 517.636 635.494 C 514.208 633.706, 514 633.684, 514 635.107 M 511.728 681 C 512.029 687.875, 512.470 693.719, 512.708 693.987 C 513.452 694.825, 512.709 672.512, 511.924 670.453 C 511.515 669.379, 511.426 674.125, 511.728 681 M 299.455 702.455 C 296.571 705.339, 296.302 708.937, 298.750 711.886 C 303.220 717.269, 312 714.315, 312 707.427 C 312 700.495, 304.419 697.490, 299.455 702.455 M 288.131 707.800 C 288.058 710.753, 288.648 714.353, 289.464 715.931 C 292.684 722.157, 301.317 726.677, 307.615 725.435 C 310.284 724.908, 311.967 726.339, 330.145 744.599 L 349.791 764.332 355.145 765.031 C 358.090 765.415, 380.300 765.810, 404.500 765.908 L 448.500 766.085 460.015 777.543 C 466.348 783.844, 471.967 789, 472.500 789 C 473.033 789, 467.858 783.375, 461 776.500 L 448.530 764 400.005 764 L 351.481 764 332.240 744.741 C 321.658 734.148, 313 725.033, 313 724.486 C 313 723.920, 310.009 723.492, 306.077 723.495 C 300.640 723.499, 298.560 723.057, 296.389 721.438 C 291.776 717.999, 289.793 714.481, 289.009 708.348 L 288.262 702.500 288.131 707.800 M 718.655 720.829 C 716.390 723.332, 716.576 728.168, 719.039 730.811 C 725.189 737.412, 735.632 728.631, 730.443 721.223 C 728.409 718.319, 721.146 718.076, 718.655 720.829 M 740.295 724.574 C 740.378 735.613, 733.463 742.389, 722.787 741.730 C 719.034 741.499, 716.290 740.722, 714.787 739.465 C 713.529 738.414, 712.981 738.112, 713.569 738.796 C 714.375 739.732, 711.644 743, 702.521 752.019 L 690.402 764 632.699 764 L 574.995 764 562.004 777.250 C 554.859 784.538, 549.010 790.820, 549.006 791.210 C 549.003 791.601, 554.783 786.088, 561.852 778.960 L 574.703 766 632.429 766 L 690.155 766 701.820 754.750 C 708.236 748.563, 713.755 743.138, 714.085 742.696 C 714.415 742.254, 716.787 742.421, 719.356 743.068 C 732.402 746.353, 743.939 735.682, 741.053 723 C 740.308 719.726, 740.259 719.827, 740.295 724.574 M 767.073 775.635 C 764.408 779.022, 764.454 781.288, 767.250 784.363 C 770.942 788.424, 773.553 788.600, 777.124 785.030 C 779.717 782.437, 780.130 781.402, 779.611 778.805 C 778.707 774.285, 777.233 773, 772.950 773 C 770.031 773, 768.663 773.613, 767.073 775.635 M 788 785.257 C 788 787.471, 783.352 792.766, 779.792 794.607 C 775.350 796.904, 766.700 796.596, 762.484 793.990 C 760.048 792.485, 759.167 792.270, 759.553 793.278 C 759.897 794.173, 758.150 796.478, 754.945 799.360 L 749.784 804 688.296 804 L 626.807 804 620.566 809.480 L 614.325 814.959 592.912 815.251 L 571.500 815.542 593.046 815.771 L 614.593 816 621.046 810.514 L 627.500 805.028 689.253 805.014 L 751.007 805 756.218 799.977 L 761.429 794.954 765.235 796.477 C 770.394 798.541, 775.313 798.391, 779.945 796.028 C 785.287 793.303, 790.517 786.183, 788.591 784.258 C 788.266 783.933, 788 784.382, 788 785.257 M 249.455 790.455 C 244.995 794.914, 247.038 800.258, 253.711 801.592 C 259.992 802.848, 263.530 794.726, 258.686 790.174 C 255.653 787.326, 252.487 787.422, 249.455 790.455 M 237.408 796.708 C 237.935 806.155, 244.770 812.142, 254.718 811.869 L 259.500 811.738 253.652 810.991 C 244.654 809.841, 239.171 804.721, 237.853 796.236 L 237.117 791.500 237.408 796.708 M 524 797.420 C 524 797.770, 528.384 802.206, 533.742 807.278 C 551.807 824.379, 568.490 840.341, 570 841.969 C 570.825 842.859, 572.400 844.179, 573.500 844.903 C 576.036 846.573, 544.395 815.417, 532.750 804.778 C 527.938 800.381, 524 797.070, 524 797.420 M 267.429 804.469 C 266.548 805.813, 264.403 807.825, 262.663 808.940 C 260.924 810.054, 260.108 810.974, 260.850 810.983 C 261.592 810.992, 263.807 809.393, 265.771 807.429 L 269.341 803.859 370.251 803.964 C 436.941 804.033, 470.952 803.731, 470.546 803.074 C 470.145 802.425, 434.985 802.070, 369.481 802.052 L 269.030 802.024 267.429 804.469 M 482.285 809.236 C 480.203 811.016, 474.363 816.169, 469.306 820.687 L 460.112 828.902 425.306 828.968 L 390.500 829.034 371 848.713 L 351.500 868.392 371.237 849.196 L 390.973 830 425.751 830 L 460.529 830 472.015 819.934 C 478.332 814.397, 484.387 808.997, 485.472 807.934 C 488.676 804.792, 486.389 805.727, 482.285 809.236 M 488 821.280 C 473.953 834.970, 460.232 847.344, 458.174 848.180 C 457.254 848.554, 451.584 848.891, 445.575 848.930 L 434.651 849 421.575 862.164 C 407.659 876.176, 410.504 874.286, 426.129 859.140 L 435.500 850.056 447.216 850.028 L 458.931 850 462.216 846.774 C 472.652 836.526, 496.640 815, 497.625 815 C 498.264 815, 499.059 814.288, 499.393 813.418 C 501.072 809.042, 499.311 810.257, 488 821.280 M 517 835.330 C 517 835.950, 543.335 861.998, 543.647 861.686 C 544.021 861.312, 518.260 835, 517.519 835 C 517.234 835, 517 835.149, 517 835.330 M 615.228 841.946 L 636.957 842.500 644.813 850.312 L 652.669 858.124 678.127 858.035 L 703.585 857.947 705.810 860.957 C 712.484 869.984, 728.229 869.232, 734.099 859.605 C 735.141 857.897, 735.994 855.617, 735.996 854.538 C 735.999 853.316, 735.151 854.238, 733.750 856.980 C 730.900 862.557, 727.427 865.085, 721.733 865.727 C 715.718 866.405, 710.741 864.608, 707.081 860.439 L 704.061 857 678.849 857 L 653.637 857 645.440 849 L 637.244 841 615.372 841.196 L 593.500 841.391 615.228 841.946 M 714.923 844.923 C 710.022 849.825, 711.534 855.563, 718.004 856.613 C 725.575 857.842, 729.898 849.807, 724.545 844.455 C 721.309 841.218, 718.491 841.356, 714.923 844.923 M 577 845.554 C 577 846.125, 588.250 857.756, 602 871.400 C 615.750 885.044, 627 895.820, 627 895.346 C 627 894.873, 615.750 883.242, 602 869.500 C 588.250 855.758, 577 844.983, 577 845.554 M 495.879 850.093 L 491.500 854.186 495.736 851.020 C 499.660 848.087, 501.719 846, 500.688 846 C 500.451 846, 498.287 847.842, 495.879 850.093 M 554 868.462 C 554 868.970, 558.500 873.959, 564 879.548 C 569.500 885.137, 574 889.204, 574 888.586 C 574 887.968, 569.500 882.979, 564 877.500 C 558.500 872.021, 554 867.953, 554 868.462 M 470.473 876.250 L 463.500 883.500 470.750 876.527 C 477.484 870.050, 478.457 869, 477.723 869 C 477.571 869, 474.308 872.263, 470.473 876.250 M 339.966 878.750 L 334.500 884.500 340.250 879.034 C 345.592 873.956, 346.458 873, 345.716 873 C 345.560 873, 342.972 875.587, 339.966 878.750 M 391.982 891.750 L 381.500 902.500 392.250 892.018 C 398.163 886.253, 403 881.415, 403 881.268 C 403 880.546, 401.718 881.765, 391.982 891.750 M 311 889.694 C 308.623 890.543, 307 893.151, 307 896.119 C 307 899.163, 311.003 903, 314.180 903 C 316.729 903, 321 898.616, 321 896 C 321 891.652, 315.401 888.121, 311 889.694 M 297.520 900.979 C 298.703 908.865, 309.343 915.412, 317.165 913.069 C 323.323 911.224, 330.053 904.254, 329.978 899.800 C 329.966 899.085, 329.118 900.345, 328.095 902.599 C 321.948 916.132, 302.705 914.609, 297.901 900.209 C 297.098 897.800, 297.056 897.885, 297.520 900.979 M 475.985 911.694 C 469.118 918.676, 466.875 921.252, 471 917.418 C 475.125 913.584, 480.928 907.871, 483.895 904.723 C 493.549 894.482, 488.779 898.685, 475.985 911.694 M 425.708 919.536 C 416.473 928.591, 409.278 936, 409.720 936 C 410.161 936, 417.938 928.575, 427 919.500 C 436.062 910.425, 443.257 903.016, 442.989 903.036 C 442.720 903.056, 434.944 910.481, 425.708 919.536 M 357.516 913 C 360.305 918.354, 366.860 921.386, 370.668 919.083 C 372.313 918.088, 372.245 917.992, 370 918.143 C 364.639 918.503, 362.776 917.883, 359.811 914.750 C 358.119 912.962, 357.087 912.175, 357.516 913 M 629.156 917.529 C 626.458 920.959, 626.439 923.017, 629.073 926.365 C 633.173 931.578, 642 928.269, 642 921.520 C 642 918.575, 639.035 916.042, 634.780 915.352 C 631.838 914.874, 630.984 915.205, 629.156 917.529 M 617.132 922.500 C 616.828 932.894, 627.842 941.398, 638.505 939.002 C 642.546 938.094, 650 931.483, 650 928.807 C 650 928.108, 648.902 929.151, 647.561 931.125 C 644.230 936.027, 639.042 938.355, 632.785 937.753 C 625.002 937.006, 619.668 932.009, 618.100 923.998 C 617.403 920.437, 617.201 920.125, 617.132 922.500 M 578.315 929.007 C 573.903 930.785, 572.665 936.665, 576 940 C 581.078 945.078, 589.846 940.457, 587.924 933.716 C 586.460 928.580, 583.264 927.013, 578.315 929.007 M 510.473 933.546 C 507.738 936.046, 506.400 937.658, 507.500 937.128 C 509.428 936.199, 516.884 929, 515.919 929 C 515.658 929, 513.208 931.046, 510.473 933.546 M 565.044 939.290 C 565.020 940.274, 565.926 942.896, 567.059 945.115 C 571.907 954.618, 586.170 955.529, 593.512 946.804 C 597.511 942.051, 596.381 941.978, 591.482 946.671 C 587.267 950.710, 586.594 951, 581.433 951 C 572.991 951, 568.975 948.393, 566.429 941.259 C 565.691 939.192, 565.068 938.305, 565.044 939.290 M 392.153 940.750 C 388.964 943.449, 388.526 947.127, 391.016 950.293 C 395.233 955.654, 403 952.872, 403 946 C 403 939.868, 396.763 936.849, 392.153 940.750 M 380.090 950.500 C 379.981 953.136, 383.316 958.516, 386.202 960.359 C 390.635 963.191, 396.277 964.272, 400.582 963.113 C 404.457 962.069, 411 956.815, 411 954.746 C 411 954.188, 410.024 954.970, 408.832 956.486 C 401.547 965.748, 384.393 962.597, 381.034 951.381 C 380.419 949.327, 380.148 949.074, 380.090 950.500 M 543.746 965.250 C 538.937 968.923, 542.149 977, 548.418 977 C 550.418 977, 552.392 976.224, 553.497 975.003 C 555.517 972.771, 555.757 967.617, 553.942 965.431 C 552.479 963.668, 545.968 963.552, 543.746 965.250 M 532.044 974.349 C 531.966 977.637, 534.921 982.440, 538.535 984.900 C 543.741 988.443, 550.722 988.846, 555.953 985.906 C 559.678 983.813, 564.006 978.688, 563.996 976.382 C 563.994 975.897, 563.098 976.967, 562.005 978.759 C 555.065 990.143, 537.855 988.779, 533.505 976.500 C 532.725 974.300, 532.068 973.332, 532.044 974.349 M 454.500 993.719 C 449.278 994.991, 447.280 1001.100, 450.557 1005.777 C 452.560 1008.637, 458.904 1008.869, 461.345 1006.171 C 463.992 1003.246, 463.487 997.529, 460.365 995.073 C 458.916 993.933, 457.453 993.052, 457.115 993.116 C 456.777 993.180, 455.600 993.451, 454.500 993.719 M 439.131 1001.038 C 438.936 1007.798, 442.387 1013.939, 447.962 1016.750 C 450.416 1017.987, 453.669 1019, 455.192 1019 C 459.528 1019, 465.265 1016.167, 467.984 1012.683 L 470.468 1009.500 466.747 1012.708 C 455.720 1022.215, 441.864 1016.787, 439.997 1002.230 C 439.264 996.514, 439.262 996.511, 439.131 1001.038 M 496.223 1033.557 C 494.707 1034.618, 494.005 1036.129, 494.015 1038.307 C 494.035 1042.339, 494.857 1043.615, 498.270 1044.913 C 501.930 1046.304, 505.759 1044.765, 507.043 1041.386 C 509.663 1034.496, 502.392 1029.235, 496.223 1033.557 M 484.532 1042.948 C 485.164 1047.330, 487.029 1050.157, 491.572 1053.623 C 499.004 1059.291, 510.845 1055.928, 515.595 1046.800 C 517.879 1042.411, 517.164 1042.152, 514.713 1046.480 C 511.462 1052.221, 505.881 1055.182, 499.211 1054.706 C 494.686 1054.383, 493.358 1053.779, 490.027 1050.527 C 487.886 1048.435, 485.661 1045.099, 485.084 1043.112 L 484.035 1039.500 484.532 1042.948" stroke="none" fill="#d8b93c" fill-rule="evenodd"/><path d="M 499.965 369.363 C 487.305 377.061, 424.812 414.379, 423.883 414.796 C 423.521 414.959, 416.986 418.869, 409.362 423.485 C 401.738 428.101, 389.425 435.433, 382 439.779 C 374.575 444.124, 342.175 463.561, 310 482.973 C 250.026 519.156, 221.202 536.505, 190.179 555.092 L 172.500 565.685 172.247 756.598 L 171.995 947.511 176.747 950.425 C 191.731 959.612, 327.158 1041.110, 355.500 1057.997 C 368.150 1065.533, 408.102 1089.542, 444.281 1111.350 C 480.461 1133.157, 510.952 1151, 512.040 1151 C 513.810 1151, 535.875 1137.903, 656.500 1065.254 C 675.200 1053.992, 715.250 1029.901, 745.500 1011.719 C 840.050 954.890, 844.405 952.249, 848.368 949.340 L 852.236 946.500 852.074 756.500 C 851.923 578.835, 851.802 566.393, 850.206 564.852 C 848.475 563.181, 841.579 558.980, 780 522.084 C 740.628 498.493, 708.804 479.595, 701.500 475.468 C 696.920 472.881, 668.429 455.955, 656.500 448.735 C 643.895 441.106, 620.779 427.308, 602.500 416.501 C 591.500 409.998, 578.675 402.334, 574 399.469 C 561.981 392.103, 556 388.729, 556 389.316 C 556 389.594, 575.013 401.189, 598.250 415.083 C 655.500 449.315, 678.282 463.032, 686 467.920 C 689.575 470.184, 693.625 472.593, 695 473.272 C 700.155 475.819, 840.068 559.659, 846.750 564.205 C 849.087 565.795, 851 567.710, 851 568.460 C 851 569.985, 848.709 570, 848.124 568.478 C 847.918 567.940, 845.504 566.468, 842.760 565.207 C 840.017 563.946, 837.101 562.244, 836.282 561.424 C 834.780 559.922, 827.647 556, 826.417 556 C 824.884 556, 828.330 558.916, 830.323 559.304 C 831.810 559.593, 831.470 559.771, 829.250 559.864 C 825.982 560.001, 825.009 561.269, 827.155 562.595 C 827.870 563.038, 828.038 562.870, 827.595 562.155 C 827.127 561.397, 827.761 561, 829.441 561 C 832.175 561, 832.343 561.376, 831 564.500 C 830.163 566.448, 830.139 566.449, 830.070 564.550 C 830.017 563.077, 829.718 562.882, 828.847 563.753 C 827.976 564.624, 827.180 564.621, 825.597 563.739 C 824.444 563.096, 823.200 562.555, 822.833 562.535 C 821.607 562.470, 820.650 561, 821.833 561 C 822.475 561, 823 560.546, 823 559.992 C 823 559.394, 822.159 559.496, 820.939 560.242 C 819.197 561.305, 818.674 561.224, 817.557 559.721 C 816.416 558.183, 816.157 558.149, 815.650 559.471 C 815.287 560.415, 815.624 561, 816.531 561 C 818.941 561, 818.193 562.359, 814.450 564.784 C 812.511 566.040, 811.193 567.503, 811.521 568.034 C 811.849 568.565, 811.641 569, 811.059 569 C 810.477 569, 810 568.386, 810 567.637 C 810 566.819, 809.099 566.368, 807.750 566.509 C 806.513 566.639, 804.461 566.802, 803.191 566.872 C 801.868 566.946, 801.157 567.444, 801.525 568.041 C 801.879 568.613, 803.143 568.815, 804.334 568.489 C 806.449 567.910, 806.454 567.933, 804.559 569.448 C 803.491 570.302, 803.006 571, 803.480 571 C 803.954 571, 805.137 570.281, 806.108 569.402 C 807.079 568.523, 808.352 568.100, 808.937 568.461 C 810.407 569.369, 810.274 571.121, 808.750 570.935 C 808.063 570.852, 806.477 571.112, 805.227 571.514 C 803.092 572.201, 803.062 572.328, 804.727 573.591 C 805.702 574.331, 805.964 574.951, 805.309 574.968 C 804.654 574.986, 803.833 574.538, 803.484 573.973 C 802.732 572.758, 799.799 573.082, 798.792 574.491 C 798.402 575.036, 797.316 575.486, 796.378 575.491 C 795.440 575.496, 794.555 576.074, 794.411 576.775 C 794.267 577.476, 794.379 577.589, 794.658 577.025 C 795.551 575.224, 796.832 575.927, 796.308 577.931 C 796.008 579.079, 795.235 579.644, 794.401 579.324 C 793.631 579.028, 793 579.284, 793 579.893 C 793 580.502, 793.450 581, 794 581 C 794.550 581, 795 581.388, 795 581.862 C 795 582.822, 790.731 582.570, 789.013 581.508 C 788.408 581.134, 786.779 581.570, 785.395 582.477 C 784.011 583.384, 782.343 583.908, 781.689 583.642 C 781.029 583.373, 781.252 583.123, 782.191 583.079 C 783.121 583.036, 784.160 582.550, 784.500 582 C 785.612 580.200, 783.048 580.952, 780.964 583.036 C 779.843 584.157, 778.445 584.775, 777.857 584.411 C 777.136 583.966, 777.221 583.482, 778.114 582.929 C 778.845 582.478, 779.128 581.795, 778.745 581.412 C 777.682 580.348, 775.048 582.962, 775.637 584.496 C 775.922 585.239, 775.250 586.331, 774.143 586.923 C 771.317 588.436, 770.256 588.265, 772.462 586.652 C 774.345 585.275, 773.840 582.936, 771.691 583.079 C 770.839 583.135, 770.857 583.302, 771.756 583.664 C 773.319 584.294, 772.381 586, 770.472 586 C 769.582 586, 769.270 585.355, 769.626 584.250 C 769.953 583.232, 769.835 582.918, 769.344 583.500 C 766.766 586.554, 761.596 589.168, 758.913 588.774 C 757.319 588.540, 756.234 588.567, 756.501 588.835 C 756.769 589.102, 756.094 589.947, 755.001 590.712 C 753.909 591.477, 752.568 592.938, 752.022 593.959 C 750.997 595.875, 751.779 595.784, 759 593.149 C 759.825 592.848, 762.442 592.558, 764.816 592.504 C 767.354 592.446, 769.555 591.807, 770.160 590.953 C 771.005 589.760, 771.090 589.807, 770.638 591.218 C 770.335 592.163, 770.518 593.202, 771.044 593.527 C 771.570 593.852, 772 593.641, 772 593.059 C 772 591.423, 773.546 591.797, 776.139 594.059 L 778.500 596.119 775.750 594.444 C 773.202 592.893, 772.507 593.128, 772.931 595.397 C 773.023 595.891, 771.952 595.543, 770.551 594.626 C 768.144 593.048, 767.773 593.070, 763.752 595.035 L 759.500 597.113 762 594.963 C 764.080 593.175, 764.164 592.925, 762.500 593.477 C 761.400 593.842, 759.150 594.395, 757.500 594.707 C 755.850 595.019, 753.775 595.901, 752.890 596.666 C 751.669 597.721, 750.625 597.808, 748.570 597.027 C 745.405 595.823, 739.988 596.744, 742.155 598.117 C 743.117 598.726, 742.824 598.974, 741.128 598.985 C 739.140 598.998, 738.956 599.242, 739.991 600.489 C 740.671 601.308, 741.626 601.731, 742.113 601.430 C 742.601 601.129, 743 601.359, 743 601.941 C 743 603.319, 741.693 603.293, 740.287 601.887 C 739.656 601.256, 738.603 601.127, 737.855 601.590 C 736.119 602.662, 733.061 602.933, 730.155 602.270 C 728.401 601.870, 728.149 601.521, 729.155 600.883 C 730.990 599.720, 732.252 599.783, 731.500 601 C 731.160 601.550, 731.332 602, 731.882 602 C 733.473 602, 734.139 600.222, 732.756 599.664 C 731.758 599.262, 731.757 599.142, 732.750 599.079 C 733.438 599.036, 734 598.325, 734 597.500 C 734 596.352, 733.513 596.487, 731.923 598.077 C 730.780 599.220, 729.299 599.945, 728.632 599.689 C 727.918 599.415, 727.337 600.193, 727.223 601.575 C 727.081 603.286, 727.433 603.771, 728.514 603.356 C 729.331 603.043, 730 603.284, 730 603.893 C 730 604.502, 729.663 604.921, 729.250 604.825 C 727.279 604.367, 723.187 607.373, 723.509 609.044 C 723.699 610.033, 723.212 611.088, 722.427 611.390 C 720.702 612.052, 720.513 610.419, 722.195 609.380 C 722.948 608.914, 722.140 608.220, 720.003 607.501 C 717.394 606.623, 717.005 606.212, 718.308 605.712 C 719.260 605.347, 720 605.540, 720 606.154 C 720 606.931, 720.387 606.924, 721.342 606.131 C 722.080 605.519, 722.916 605.249, 723.200 605.533 C 723.483 605.816, 724.293 605.352, 725 604.500 C 725.707 603.648, 725.971 602.638, 725.588 602.255 C 725.205 601.872, 724.569 602.080, 724.174 602.718 C 723.780 603.356, 722.342 604.089, 720.979 604.346 C 719.615 604.603, 717.186 605.506, 715.580 606.351 C 713.509 607.442, 712.129 607.604, 710.831 606.909 C 709.378 606.132, 708.383 606.562, 706 609 C 704.350 610.688, 703 611.615, 703 611.059 C 703 610.395, 702.144 610.375, 700.500 611 C 698.194 611.877, 697.606 611.613, 697.860 609.814 C 697.914 609.436, 697.098 609.192, 696.048 609.271 C 694.998 609.350, 694.339 609.739, 694.584 610.136 C 694.829 610.532, 694.229 611.110, 693.251 611.420 C 692.273 611.731, 690.667 613.226, 689.683 614.742 C 688.275 616.913, 688.019 617.043, 688.480 615.357 C 689.058 613.246, 689.013 613.238, 685.487 614.836 C 682.248 616.304, 682.072 616.580, 683.645 617.729 C 684.600 618.428, 684.846 619, 684.191 619 C 683.536 619, 682.100 618.100, 681 617 C 679.900 615.900, 678.325 615, 677.500 615 C 676.675 615, 676 614.502, 676 613.893 C 676 613.284, 676.689 613.050, 677.530 613.373 C 678.525 613.755, 679.449 613.109, 680.170 611.527 C 680.780 610.188, 682.003 608.876, 682.889 608.611 C 683.955 608.293, 683.823 608.184, 682.500 608.290 C 681.400 608.378, 679.938 608.097, 679.250 607.666 C 677.655 606.666, 677.619 608.219, 679.200 609.800 C 680.133 610.733, 680.049 611, 678.822 611 C 677.955 611, 676.685 611.675, 676 612.500 C 674.568 614.225, 672 614.508, 672 612.941 C 672 612.359, 672.508 612.196, 673.130 612.580 C 673.815 613.004, 674.077 612.732, 673.796 611.889 C 673.542 611.125, 672.921 610.493, 672.417 610.485 C 671.913 610.476, 670.908 610.094, 670.183 609.635 C 669.459 609.175, 668.597 609.070, 668.267 609.400 C 667.937 609.730, 668.192 610, 668.833 610 C 669.475 610, 670 610.498, 670 611.107 C 670 611.716, 669.410 611.987, 668.688 611.711 C 667.967 611.434, 666.279 612.051, 664.938 613.081 C 663.597 614.112, 661.911 614.966, 661.191 614.978 C 660.448 614.990, 660.195 615.506, 660.605 616.170 C 661.089 616.953, 660.786 617.132, 659.690 616.711 C 658.691 616.328, 657.665 616.749, 657.057 617.792 C 656.143 619.359, 656.058 619.362, 656.030 617.833 C 656.014 616.917, 655.438 615.917, 654.750 615.612 C 653.930 615.249, 654.015 615.109, 655 615.207 C 655.825 615.288, 658.071 614.681, 659.992 613.858 C 663.214 612.476, 663.310 612.314, 661.241 611.773 C 660.007 611.451, 659.220 611.547, 659.493 611.988 C 660.027 612.853, 657.437 614.246, 655.003 614.403 C 654.179 614.457, 653.504 615.138, 653.503 615.917 C 653.501 616.696, 652.875 617.542, 652.111 617.796 C 651.344 618.052, 651.003 617.804, 651.350 617.243 C 651.695 616.684, 651.342 615.699, 650.565 615.054 C 649.426 614.108, 648.676 614.582, 646.691 617.504 C 642.946 623.015, 624.428 641.698, 623.023 641.383 C 622.736 641.318, 620.025 642.945, 617 644.998 C 604.955 653.174, 583.010 662.300, 566.493 666.002 C 556.348 668.275, 536 680.681, 536 684.593 C 536 685.367, 535.663 686, 535.250 686.001 C 534.312 686.002, 529.260 694.928, 526.782 700.963 C 525.520 704.038, 525.114 704.533, 525.525 702.500 C 526.847 695.948, 533.514 684.480, 539.497 678.462 C 546.766 671.151, 553.561 667.756, 572.165 662.137 C 597.729 654.417, 609.683 648.681, 623.946 637.291 C 650.488 616.096, 667.494 583.740, 669.694 550.250 L 670.302 541 658.837 541 C 616.944 541, 580.260 555.297, 555.242 581.373 C 546.218 590.779, 536.168 604.541, 531.241 614.240 C 529.351 617.959, 527.392 621.258, 526.887 621.570 C 526.381 621.883, 526.218 622.544, 526.525 623.040 C 526.831 623.536, 526.300 625.417, 525.345 627.221 C 524.390 629.024, 523.476 630.950, 523.314 631.500 C 521.290 638.353, 516.660 650.723, 515.828 651.499 C 515.157 652.125, 515.189 651.657, 515.913 650.250 C 516.851 648.427, 516.800 648, 515.642 648 C 514.857 648, 513.946 647.302, 513.618 646.448 C 513.274 645.551, 513.444 645.156, 514.020 645.512 C 514.568 645.851, 515.410 645.087, 515.891 643.814 C 516.859 641.253, 516.378 639.648, 514.915 640.553 C 514.394 640.875, 514.197 641.510, 514.478 641.964 C 514.759 642.419, 514.293 643.057, 513.442 643.384 C 512.592 643.710, 512.142 643.579, 512.443 643.093 C 512.743 642.606, 512.416 641.104, 511.716 639.754 C 510.717 637.827, 510.194 637.567, 509.282 638.544 C 508.643 639.227, 508.393 640.060, 508.727 640.393 C 509.060 640.727, 508.846 641, 508.250 641 C 507.654 641, 506.940 640.438, 506.662 639.750 C 506.385 639.063, 506.122 639.561, 506.079 640.857 C 506.024 642.498, 506.431 643.049, 507.417 642.670 C 508.197 642.371, 509.097 642.810, 509.417 643.645 C 510.248 645.811, 510.175 646, 508.500 646 C 506.684 646, 506.663 646.764, 508.393 649.885 C 509.247 651.425, 509.964 651.868, 510.417 651.135 C 510.802 650.511, 510.641 650, 510.059 650 C 509.477 650, 509 649.447, 509 648.771 C 509 648.095, 510.070 648.658, 511.378 650.021 C 513.539 652.273, 513.616 652.660, 512.223 654.250 C 510.359 656.378, 508.244 656.616, 510 654.500 C 511.012 653.281, 510.966 653, 509.758 653 C 508.317 653, 506.455 648.942, 504.023 640.500 C 500.566 628.498, 490.395 608.322, 482.345 597.500 C 465.419 574.743, 440.440 556.266, 416.316 548.656 C 400.175 543.564, 387.741 541.589, 365.420 540.572 L 354.341 540.066 354.738 545.783 C 355.937 563.053, 362.299 584.408, 371.087 600.660 C 387.483 630.986, 411.748 650.674, 444.697 660.387 C 470.738 668.063, 479.024 672.042, 487.222 680.806 C 493.045 687.031, 496.548 693.165, 498.448 700.460 C 500.703 709.119, 500.214 710.536, 497.573 703 C 493.816 692.283, 490.528 686.799, 484.303 680.866 C 475.769 672.732, 471.237 670.674, 441.941 661.630 C 415.364 653.426, 391.624 636.167, 376.724 614.219 C 371.508 606.534, 362.164 589.002, 359.898 582.646 C 358.889 579.816, 357.417 574.698, 356.626 571.273 C 355.136 564.820, 352 559.793, 352 563.857 C 352 564.957, 352.675 566.532, 353.500 567.357 C 354.325 568.182, 355 569.427, 355 570.123 C 355 570.819, 353.890 569.884, 352.533 568.045 C 351.176 566.206, 350.303 564.319, 350.592 563.851 C 350.881 563.383, 350.364 563, 349.442 563 C 348.259 563, 347.920 563.588, 348.290 565 C 348.577 566.100, 348.405 567, 347.906 567 C 347.408 567, 347 566.487, 347 565.860 C 347 565.233, 346.310 564.216, 345.466 563.598 C 344.089 562.592, 344.095 562.272, 345.517 560.488 C 347.062 558.552, 347.089 558.565, 346.547 561 C 345.994 563.478, 346 563.480, 347.152 561.240 C 348.441 558.735, 347.805 557.384, 345.893 558.566 C 344.216 559.603, 339 559.699, 339 558.694 C 339 557.700, 332.850 552, 331.777 552 C 331.350 552, 331 552.477, 331 553.059 C 331 553.641, 331.418 553.860, 331.928 553.544 C 332.438 553.229, 333.146 553.884, 333.500 555 C 333.854 556.116, 334.539 556.785, 335.022 556.487 C 336.473 555.590, 338.377 560.023, 337.093 561.307 C 336.302 562.098, 335.996 561.583, 335.985 559.450 C 335.974 557.369, 335.711 556.908, 335.092 557.885 C 334.391 558.992, 333.985 558.841, 333.072 557.135 C 332.444 555.961, 331.297 555, 330.524 555 C 329.751 555, 328.797 554.480, 328.405 553.845 C 327.932 553.082, 328.134 552.965, 329 553.500 C 329.873 554.039, 330.068 553.919, 329.585 553.138 C 329.187 552.494, 328.423 552.238, 327.887 552.570 C 327.351 552.901, 326.171 552.571, 325.264 551.836 C 324.037 550.841, 323.811 550.825, 324.380 551.771 C 324.937 552.697, 324.369 552.984, 322.294 552.826 C 320.726 552.706, 318.968 552.902, 318.388 553.260 C 317.808 553.619, 317.333 553.237, 317.333 552.413 C 317.333 551.575, 317.921 551.139, 318.667 551.426 C 319.400 551.707, 320 551.501, 320 550.969 C 320 550.436, 320.337 550.053, 320.750 550.118 C 321.163 550.184, 322.539 550.184, 323.809 550.118 C 326.990 549.955, 325.523 548.007, 322.191 547.970 C 319.872 547.943, 319.743 547.797, 321.258 546.915 C 322.225 546.352, 323.431 546.148, 323.939 546.462 C 324.446 546.776, 325.150 546.566, 325.503 545.995 C 326.252 544.783, 320.398 544.907, 317.848 546.156 C 316.556 546.789, 316.302 546.559, 316.684 545.101 C 317.254 542.919, 313.430 538.898, 311.491 539.642 C 310.782 539.914, 309.931 539.698, 309.600 539.162 C 309.269 538.626, 308.098 538.423, 306.999 538.711 C 305.837 539.014, 305 538.741, 305 538.058 C 305 537.411, 305.390 537.123, 305.866 537.417 C 306.343 537.712, 307.559 537.040, 308.568 535.924 C 310.384 533.919, 310.372 533.908, 307.563 534.976 C 304.578 536.111, 302.627 535.467, 304.863 534.084 C 305.823 533.491, 305.595 533.127, 304.006 532.712 C 302.285 532.262, 301.973 532.489, 302.480 533.823 C 303.008 535.208, 302.891 535.271, 301.809 534.183 C 300.730 533.096, 300.821 532.628, 302.330 531.514 C 303.500 530.650, 304 529.321, 303.716 527.831 C 303.273 525.504, 303.272 525.504, 303.136 527.750 C 303.061 528.987, 302.550 530, 302 530 C 301.450 530, 301.053 529.663, 301.118 529.250 C 301.387 527.548, 300.952 526.012, 300.250 526.186 C 299.837 526.288, 297.758 525.613, 295.628 524.686 C 291.221 522.767, 289.605 522.551, 290.500 524 C 290.840 524.550, 290.668 525, 290.118 525 C 289.568 525, 288.835 524.543, 288.490 523.984 C 288.144 523.425, 287.443 523.226, 286.931 523.543 C 285.462 524.450, 285.837 523.494, 287.867 521.153 C 289.981 518.716, 291.947 518.154, 289.953 520.557 C 288.837 521.901, 288.991 522.069, 291.080 521.782 C 292.411 521.599, 294.037 521.112, 294.694 520.700 C 295.350 520.289, 297.235 520.189, 298.882 520.479 C 300.622 520.786, 302.178 520.522, 302.593 519.849 C 303.002 519.188, 302.874 518.960, 302.297 519.317 C 301.740 519.661, 299.945 519.558, 298.308 519.088 C 296.488 518.566, 294.626 518.630, 293.514 519.252 C 291.960 520.122, 291.777 519.960, 292.255 518.135 C 292.932 515.544, 291.359 515.365, 288.740 517.735 C 286.854 519.442, 286.853 519.418, 288.662 516.216 C 290.254 513.397, 290.303 512.838, 289.029 512.035 C 288.220 511.526, 287.333 511.334, 287.058 511.609 C 286.783 511.884, 287.220 512.527, 288.029 513.039 C 289.314 513.852, 289.309 513.971, 287.990 513.985 C 287.159 513.993, 285.149 512.766, 283.522 511.258 C 281.059 508.974, 280.854 508.459, 282.294 508.182 C 283.246 507.999, 283.724 507.362, 283.356 506.767 C 282.923 506.066, 283.436 505.881, 284.809 506.240 C 286.027 506.558, 286.840 506.348, 286.716 505.746 C 286.523 504.810, 288.859 502.919, 294.629 499.339 C 296.236 498.343, 296.260 498.209, 294.801 498.391 C 293.867 498.507, 288.995 501.054, 283.973 504.051 C 278.952 507.048, 272.292 510.870, 269.172 512.543 C 266.052 514.217, 259 518.257, 253.500 521.521 C 248 524.785, 242.600 527.967, 241.500 528.593 C 234.257 532.709, 221.107 540.497, 206.029 549.601 C 188.584 560.134, 171.371 569.662, 175.888 566.285 C 177.202 565.303, 180.191 563.375, 182.530 562 C 184.869 560.625, 191.669 556.521, 197.642 552.881 C 208.905 546.014, 260.035 515.049, 318 479.989 C 374.936 445.551, 505.320 367.376, 508.792 365.595 C 512.066 363.914, 512.115 363.925, 518.292 367.613 C 526.022 372.229, 526 372.218, 526 371.649 C 526 370.823, 513.100 363, 511.739 363 C 511.019 363, 505.720 365.863, 499.965 369.363 M 527.500 372.757 C 528.050 373.294, 530.750 374.960, 533.500 376.458 C 536.250 377.956, 537.600 378.431, 536.500 377.513 C 534.238 375.625, 525.956 371.248, 527.500 372.757 M 544.550 382.867 C 546.102 384.283, 555 389.234, 555 388.681 C 555 388.070, 545.265 382, 544.285 382 C 543.908 382, 544.028 382.390, 544.550 382.867 M 292 513.082 C 290.825 513.903, 290.987 513.994, 292.744 513.500 C 294.356 513.047, 294.848 513.239, 294.493 514.185 C 294.209 514.942, 295.165 516.020, 296.750 516.726 L 299.500 517.952 297.206 516.030 C 295.944 514.973, 294.966 513.758, 295.031 513.329 C 295.222 512.076, 293.624 511.946, 292 513.082 M 310 542.950 C 307.560 543.683, 307.585 543.725, 311 544.704 C 315.029 545.858, 316.145 545.541, 315.349 543.468 C 314.740 541.880, 313.850 541.794, 310 542.950 M 357.001 546.750 C 357.003 549.951, 359.374 563.872, 360.990 570.162 C 362.748 577.012, 368.984 593.018, 372.029 598.500 C 373.557 601.250, 375.804 605.300, 377.022 607.500 C 380.613 613.986, 391.500 627.391, 397.723 632.989 C 410.502 644.486, 425.600 652.715, 444.500 658.484 C 451.100 660.498, 459.200 663.081, 462.500 664.223 C 478.723 669.838, 489.974 678.712, 496.418 690.975 C 502.283 702.138, 503 707.894, 503 743.847 L 503 775.563 497.053 781.448 C 492.017 786.431, 490.871 787.138, 489.575 786.062 C 488.732 785.363, 480.750 777.413, 471.837 768.396 L 455.630 752 404.891 752 L 354.153 752 339.326 736.905 C 331.172 728.602, 323.247 720.910, 321.716 719.812 L 318.931 717.815 315.216 720.657 C 312.058 723.073, 310.572 723.500, 305.323 723.500 C 295.719 723.500, 290.302 718.469, 289.009 708.348 L 288.262 702.500 288.131 707.800 C 288.058 710.753, 288.648 714.353, 289.464 715.931 C 292.684 722.157, 301.317 726.677, 307.615 725.435 C 310.284 724.908, 311.967 726.339, 330.145 744.599 L 349.791 764.332 355.145 765.031 C 358.090 765.415, 380.300 765.810, 404.500 765.908 L 448.500 766.085 460.015 777.543 C 466.348 783.844, 471.967 789, 472.500 789 C 473.033 789, 467.858 783.375, 461 776.500 L 448.530 764 400.005 764 L 351.481 764 332.037 744.537 C 321.343 733.832, 312.818 724.849, 313.093 724.574 C 313.368 724.298, 322.331 732.832, 333.011 743.537 L 352.429 763 401.077 763 L 449.725 763 462.112 776.022 C 468.926 783.185, 474.645 789.710, 474.823 790.522 C 475.107 791.818, 462.535 792, 372.573 792 L 270 792 270 796.500 L 270 801 369.667 801 C 424.483 801, 469.090 801.243, 468.792 801.541 C 468.495 801.838, 423.427 802.068, 368.641 802.052 L 269.031 802.023 267.429 804.468 C 266.548 805.813, 264.403 807.825, 262.663 808.940 C 260.924 810.054, 260.107 810.974, 260.850 810.983 C 261.592 810.992, 263.807 809.393, 265.771 807.429 L 269.341 803.859 370.251 803.964 C 439.527 804.036, 470.960 803.744, 470.521 803.034 C 470.170 802.465, 470.557 802, 471.382 802 C 475.318 802, 473.966 804.739, 466.600 811.688 L 458.849 819 422.450 819 L 386.052 819 354.443 850.230 L 322.834 881.460 326.402 884.730 C 328.365 886.528, 330.540 887.964, 331.235 887.921 C 332.195 887.861, 332.181 887.715, 331.177 887.313 C 330.192 886.920, 330.428 886.173, 332.101 884.392 C 334.474 881.867, 336.603 881.133, 335.418 883.250 C 335.033 883.938, 337.245 882.051, 340.334 879.059 C 343.423 876.066, 345.720 873.387, 345.439 873.105 C 344.778 872.444, 380.157 837, 381.477 837 C 382.027 837, 375.506 844.065, 366.988 852.701 C 352.737 867.147, 353.077 866.867, 371.237 849.201 L 390.973 830 425.751 830 L 460.529 830 472.015 819.934 C 478.332 814.397, 484.400 808.946, 485.500 807.820 L 487.500 805.773 485.500 806.834 C 484.400 807.417, 478.190 812.644, 471.699 818.448 C 460.814 828.182, 459 829.637, 459 828.640 C 459 828.030, 481.069 808.609, 483.867 806.757 C 487.372 804.436, 488 804.544, 488 807.467 C 488 809.302, 484.206 813.787, 473.195 824.967 L 458.390 840 443.606 840 L 428.823 840 399.360 869.250 C 376.487 891.958, 369.010 898.800, 365.928 899.840 C 355.976 903.200, 357.239 917.200, 367.494 917.200 C 372.142 917.200, 374.605 914.756, 375.578 909.179 C 376.089 906.249, 378.281 903.413, 386.342 895.250 C 391.909 889.612, 396.912 885, 397.460 885 C 398.008 885, 394.651 888.825, 390 893.500 C 385.349 898.175, 381.767 902, 382.040 902 C 382.313 902, 387.253 897.176, 393.018 891.280 C 398.783 885.384, 402.262 881.638, 400.750 882.955 C 399.238 884.271, 398 884.855, 398 884.252 C 398 882.595, 406.141 875.969, 407.299 876.685 C 407.855 877.028, 408.029 876.855, 407.686 876.301 C 407.343 875.746, 413.466 868.984, 421.292 861.274 L 435.520 847.255 445.672 847.080 C 451.857 846.973, 456.076 847.314, 456.471 847.952 C 456.907 848.659, 453.479 849, 445.952 849 L 434.787 849 427.395 856.168 C 423.329 860.110, 420.240 863.573, 420.530 863.864 C 420.821 864.154, 424.318 861.154, 428.303 857.196 L 435.547 850 446.692 850 C 457.839 850, 461 849.541, 461 847.924 C 461 847.451, 460.293 847.334, 459.428 847.666 C 457.983 848.221, 486.944 820.522, 495 813.645 C 500.619 808.848, 477.224 831.813, 468.737 839.425 C 464.491 843.233, 461.210 846.544, 461.448 846.781 C 461.685 847.018, 465.169 844.079, 469.190 840.250 C 484.625 825.550, 496.504 815, 497.622 815 C 499.080 815, 500.228 812.178, 499.349 810.755 C 498.961 810.128, 499.165 809.984, 499.845 810.405 C 500.595 810.868, 501 814.660, 501 821.210 L 501 831.301 476.250 855.394 C 462.637 868.645, 440.105 890.751, 426.178 904.519 L 400.856 929.551 404.947 931.850 L 409.038 934.149 421.585 921.825 C 428.485 915.046, 434.664 909.358, 435.316 909.185 C 435.967 909.011, 430.273 914.974, 422.663 922.435 C 415.052 929.896, 409.207 936, 409.674 936 C 410.141 936, 417.938 928.575, 427 919.500 C 436.062 910.425, 443.061 903, 442.552 903 C 442.042 903, 442.904 901.666, 444.466 900.036 C 446.028 898.405, 447.698 897.314, 448.178 897.610 C 448.657 897.906, 448.926 897.553, 448.775 896.824 C 448.624 896.096, 449.062 895.612, 449.750 895.750 C 450.437 895.887, 450.887 895.458, 450.750 894.795 C 450.612 894.133, 451.063 893.570, 451.750 893.545 C 452.438 893.520, 452.887 893.199, 452.750 892.831 C 452.289 891.596, 457.277 887.054, 458.395 887.691 C 459.003 888.037, 459.148 887.934, 458.717 887.461 C 457.960 886.629, 477.680 866, 479.232 866 C 479.654 866, 480 872.194, 480 879.763 L 480 893.527 466 907.500 L 452 921.473 452 952.627 L 452 983.781 455.531 984.193 C 457.472 984.420, 459.272 984.394, 459.531 984.136 C 459.789 983.878, 460 970.642, 460 954.724 L 460 925.781 468.271 917.640 C 481.954 904.174, 485.202 901.806, 474 913.464 C 465.567 922.241, 464.976 923.019, 471 917.419 C 478.378 910.560, 492.089 896.191, 486.740 900.924 C 483.559 903.739, 483.037 902.654, 486.036 899.461 C 487.912 897.465, 488.114 895.643, 488.593 876.397 L 489.114 855.500 496.036 848.529 C 500.583 843.951, 503.297 841.897, 503.944 842.544 C 504.556 843.156, 504.972 859.193, 505.041 884.830 L 505.152 926.130 500.576 931.022 L 496 935.914 496 978.957 L 496 1022 500 1022 L 504 1022 504 979.933 L 504 937.866 509.966 932.183 L 515.933 926.500 515.811 881.205 C 515.721 847.739, 515.996 835.604, 516.863 834.737 C 517.761 833.839, 521.202 836.723, 531.518 847.018 L 545 860.472 545 907.296 L 545 954.121 548.750 953.810 L 552.500 953.500 552.708 912 C 552.823 889.175, 553.150 869.600, 553.434 868.500 C 553.868 866.820, 555.716 868.259, 564.976 877.483 L 576 888.466 576 903.733 C 576 918.903, 576.014 919, 578.250 918.986 C 584.745 918.947, 584.529 919.618, 584.206 900.484 L 583.911 883.068 552.990 851.784 L 522.068 820.500 522.034 809.417 C 522.015 803.321, 522.264 798.069, 522.587 797.746 C 522.910 797.423, 527.737 801.511, 533.315 806.830 C 538.892 812.148, 549.090 821.867, 555.978 828.426 C 562.865 834.985, 569.175 841.080, 570 841.969 C 570.825 842.859, 572.400 844.204, 573.500 844.958 C 576.040 846.699, 553.400 824.102, 537 808.528 C 530.125 801.999, 525.400 797.279, 526.500 798.039 C 528.697 799.557, 534.356 804.804, 558.830 828.014 C 567.811 836.531, 575.686 843.627, 576.330 843.783 C 576.973 843.938, 589.087 855.554, 603.250 869.595 L 629 895.126 629 900.563 L 629 906 633 906 L 637 906 637 897.523 L 637 889.045 613.850 865.369 C 592.190 843.215, 590.823 841.601, 592.600 840.279 C 594.130 839.141, 598.621 838.928, 615.677 839.183 L 636.854 839.500 645.401 847.844 L 653.948 856.188 678.474 855.851 L 703 855.514 703 851.257 L 703 847 695.250 846.917 C 690.987 846.872, 680.828 846.892, 672.672 846.961 L 657.845 847.087 649.505 838.947 L 641.166 830.807 612.435 831.125 L 583.705 831.443 576.852 824.127 C 573.084 820.104, 570 816.180, 570 815.406 C 570 814.241, 573.709 814, 591.614 814 L 613.228 814 619.288 808.750 L 625.347 803.500 687.660 803 L 749.972 802.500 754.141 798.331 C 758.213 794.257, 758.279 794.084, 756.994 790.831 C 754.990 785.753, 754.701 785.708, 749.990 789.741 L 745.599 793.500 683.103 793.731 L 620.607 793.963 615.767 798.731 L 610.927 803.500 584.330 803.812 L 557.732 804.123 552.366 798.583 C 549.415 795.536, 547 792.450, 547 791.725 C 547 791.001, 553.224 784.241, 560.830 776.704 L 574.660 763 632.169 763 L 689.679 763 701.307 751.500 C 707.703 745.175, 713.328 740, 713.807 740 C 714.286 740, 709.216 745.400, 702.540 752 L 690.402 764 632.699 764 L 574.995 764 562.004 777.250 C 554.859 784.538, 549.010 790.820, 549.006 791.210 C 549.003 791.601, 554.783 786.088, 561.852 778.960 L 574.703 766 632.429 766 L 690.155 766 701.820 754.750 C 708.236 748.563, 713.755 743.138, 714.085 742.696 C 714.415 742.254, 716.787 742.421, 719.356 743.068 C 732.402 746.353, 743.939 735.682, 741.053 723 C 740.308 719.726, 740.259 719.827, 740.295 724.574 C 740.378 735.613, 733.463 742.389, 722.787 741.730 C 719.030 741.498, 716.378 740.747, 715.037 739.534 C 713.917 738.520, 713 738.046, 713 738.481 C 713 738.915, 711.640 737.748, 709.978 735.886 L 706.955 732.500 697.026 742.750 L 687.097 753 627.751 753 L 568.405 753 551.559 770 C 542.293 779.350, 534.167 787, 533.501 787 C 532.835 787, 529.975 784.552, 527.145 781.560 L 522 776.120 521.934 751.810 C 521.805 704.275, 521.855 703.782, 528.086 691.279 C 531.156 685.118, 533.801 681.545, 538.638 677.020 C 546.860 669.328, 553.274 666.133, 571.668 660.563 C 595.864 653.237, 606.242 648.504, 618.621 639.145 C 646.811 617.836, 666.139 583.082, 667.087 552 L 667.316 544.500 655.908 544.584 C 633.022 544.753, 609.771 550.155, 590.500 559.778 C 572.971 568.531, 552.976 586.278, 542.366 602.500 C 525.732 627.932, 517.677 652.973, 514.860 688 C 513.847 700.600, 512.971 704.304, 511.380 702.713 C 511.020 702.353, 510.110 695.408, 509.357 687.280 C 506.684 658.399, 501.560 638.902, 491.415 619 C 473.741 584.326, 445.191 560.583, 408.578 550.108 C 396.383 546.619, 377.816 544, 365.280 544 L 357 544 357.001 546.750 M 817.989 563.339 C 817.170 563.977, 816.369 565.400, 816.208 566.500 C 815.987 568.014, 816.142 568.165, 816.846 567.122 C 817.387 566.322, 818.307 566.072, 819.043 566.526 C 819.907 567.061, 820.061 566.907, 819.526 566.043 C 819.082 565.324, 819.278 564.446, 819.979 564.013 C 820.658 563.593, 820.823 563.009, 820.346 562.714 C 819.868 562.419, 818.808 562.700, 817.989 563.339 M 823.651 566.225 C 823.099 568.336, 824.342 569.969, 826.500 569.969 C 827.050 569.969, 826.922 569.603, 826.216 569.155 C 825.510 568.707, 825.203 567.634, 825.534 566.771 C 825.865 565.908, 825.707 564.937, 825.182 564.612 C 824.657 564.288, 823.968 565.014, 823.651 566.225 M 813.469 567.950 C 813.792 568.472, 813.131 569.395, 812 570 C 810.869 570.605, 810.238 571.576, 810.597 572.157 C 811.027 572.853, 810.473 572.968, 808.974 572.492 C 807.149 571.912, 806.818 572.084, 807.307 573.358 C 807.669 574.302, 807.223 575.351, 806.208 575.943 C 805.269 576.491, 804.976 576.953, 805.559 576.970 C 806.141 576.986, 807.491 576.339, 808.559 575.532 C 810.965 573.712, 813.388 573.534, 812.395 575.250 C 811.527 576.752, 815.897 572.181, 817.952 569.438 C 819.096 567.911, 819.106 567.765, 818.002 568.750 C 816.128 570.421, 815 570.327, 815 568.500 C 815 567.675, 814.523 567, 813.941 567 C 813.359 567, 813.146 567.427, 813.469 567.950 M 783.350 576.250 C 783.092 576.663, 783.696 577.014, 784.691 577.030 C 786.403 577.059, 786.406 577.115, 784.742 578.085 C 783.775 578.648, 782.613 578.879, 782.159 578.598 C 781.705 578.318, 781.333 578.668, 781.333 579.377 C 781.333 580.151, 782.566 580.667, 784.417 580.667 C 786.112 580.667, 786.942 580.481, 786.259 580.253 C 785.326 579.942, 785.387 579.470, 786.506 578.351 C 787.360 577.498, 788.812 577.123, 789.913 577.472 C 790.968 577.807, 792.118 577.618, 792.468 577.052 C 792.859 576.419, 792.444 576.276, 791.388 576.681 C 790.365 577.074, 789.920 576.939, 790.286 576.347 C 790.650 575.757, 789.463 575.384, 787.358 575.427 C 785.411 575.467, 783.607 575.837, 783.350 576.250 M 799.250 576.674 C 798.013 577.538, 797 578.694, 797 579.244 C 797 579.795, 797.694 579.669, 798.542 578.965 C 799.711 577.995, 800.366 577.966, 801.242 578.842 C 802.119 579.719, 801.947 580, 800.533 580 C 799.507 580, 798.947 580.281, 799.290 580.624 C 799.633 580.966, 800.659 580.961, 801.569 580.612 C 802.951 580.082, 803.010 579.717, 801.927 578.412 C 800.855 577.121, 800.879 576.689, 802.064 575.939 C 802.854 575.439, 803.050 575.047, 802.500 575.068 C 801.950 575.088, 800.487 575.811, 799.250 576.674 M 619.500 581.739 C 604.947 585.336, 585.636 593.791, 573.544 601.859 C 565.937 606.935, 552.521 620.154, 545.665 629.330 C 537.618 640.098, 524 668.806, 524 675.001 C 524 679.194, 525.892 677.434, 530.900 668.584 C 548.072 638.239, 571.309 616.335, 614.794 589.501 C 619.906 586.346, 623.928 583.284, 623.732 582.695 C 623.290 581.370, 622.090 581.099, 619.500 581.739 M 401.582 583.250 C 402.160 584.639, 404.369 586.207, 417.500 594.545 C 449.635 614.950, 474.272 639.076, 491.796 667.296 C 497.292 676.147, 498.556 677.647, 498.809 675.621 C 499.473 670.315, 489.740 646.307, 482.176 634.591 C 467.070 611.192, 445.033 594.936, 415.077 585.095 C 404.962 581.773, 400.728 581.194, 401.582 583.250 M 607.441 586.940 C 586.881 593.980, 572.760 602.417, 559.943 615.315 C 551.815 623.496, 538.482 642.143, 537.322 646.952 C 536.985 648.353, 535.925 650.625, 534.969 652 C 532.725 655.224, 529.830 662.163, 530.463 662.797 C 530.733 663.066, 531.274 662.434, 531.666 661.393 C 532.058 660.352, 533.917 657.083, 535.797 654.129 C 537.677 651.175, 539.303 647.575, 539.409 646.129 C 539.585 643.737, 543.262 638.013, 552.227 626.179 C 557.047 619.815, 566.583 611.168, 574.925 605.597 C 584.492 599.208, 599.239 591.768, 599.975 592.960 C 600.332 593.538, 601.115 593.539, 602.026 592.963 C 603.318 592.146, 603.315 592.020, 602 591.945 C 601.175 591.898, 602.750 591.050, 605.500 590.059 C 616.125 586.233, 617.561 585.646, 619.473 584.344 C 622.723 582.130, 619.382 582.851, 607.441 586.940 M 406.550 584.904 C 407.072 585.401, 410.988 587.035, 415.250 588.534 C 419.512 590.033, 423 591.678, 423 592.189 C 423 592.700, 423.388 592.878, 423.863 592.585 C 424.771 592.023, 441.348 600.135, 443.972 602.425 C 444.812 603.159, 446.955 604.496, 448.733 605.396 C 453.085 607.601, 466.300 619.586, 472.656 627.094 C 475.492 630.444, 479.839 637.086, 482.316 641.854 C 484.793 646.622, 487.538 651.868, 488.417 653.511 C 489.296 655.155, 491.142 659.157, 492.520 662.404 C 493.898 665.651, 495.244 668.089, 495.511 667.822 C 496.719 666.614, 484.463 640.481, 478.553 631.664 C 473.227 623.717, 457.272 608.319, 448.090 602.266 C 438.242 595.772, 426.689 590.209, 415.528 586.587 C 406.967 583.809, 405.015 583.443, 406.550 584.904 M 781.758 585.575 C 781.251 586.082, 778.965 586.698, 776.750 586.923 C 776.337 586.966, 776 587.419, 776 587.930 C 776 588.500, 777.233 588.507, 779.183 587.948 C 782.462 587.007, 785.311 585, 783.367 585 C 782.798 585, 782.075 585.259, 781.758 585.575 M 764.870 588.657 C 764.311 589.330, 763.100 590.070, 762.177 590.302 C 761.255 590.535, 761.497 590.627, 762.715 590.508 C 763.933 590.388, 765.097 590.563, 765.301 590.895 C 765.505 591.228, 765.535 590.938, 765.367 590.250 C 764.974 588.634, 767.703 588.609, 768.241 590.224 C 768.466 590.898, 768.903 590.479, 769.213 589.295 C 769.654 587.608, 769.354 587.173, 767.830 587.288 C 766.760 587.368, 765.428 587.985, 764.870 588.657 M 753.331 597.250 C 752.828 597.938, 751.832 599.674, 751.116 601.108 C 750.087 603.168, 749.213 603.646, 746.951 603.383 C 743.907 603.028, 742.184 604.378, 744.138 605.585 C 744.819 606.006, 745.043 605.878, 744.673 605.280 C 744.302 604.679, 745.071 604.250, 746.518 604.250 C 747.883 604.250, 749.016 604.756, 749.035 605.375 C 749.055 605.994, 749.650 605.457, 750.357 604.182 C 751.503 602.117, 751.784 602.035, 752.944 603.432 C 753.659 604.295, 754.977 604.971, 755.872 604.937 C 757.025 604.892, 756.873 604.620, 755.352 604.007 C 752.902 603.018, 751.323 601, 753 601 C 753.615 601, 753.821 600.520, 753.459 599.933 C 753.096 599.347, 753.632 598.236, 754.650 597.465 C 755.667 596.694, 755.993 596.049, 755.372 596.032 C 754.752 596.014, 753.834 596.563, 753.331 597.250 M 744 599.059 C 744 599.641, 744.526 599.793, 745.170 599.395 C 745.957 598.909, 746.131 599.217, 745.701 600.336 C 745.350 601.251, 745.499 602, 746.031 602 C 746.564 602, 747 601.523, 747 600.941 C 747 600.359, 747.450 600.160, 748 600.500 C 748.550 600.840, 749.498 600.810, 750.107 600.434 C 750.878 599.957, 750.803 599.490, 749.857 598.890 C 747.944 597.678, 744 597.792, 744 599.059 M 431 599.334 C 431 599.832, 441.545 607, 442.278 607 C 443.443 607, 437.517 601.562, 436.119 601.349 C 435.360 601.233, 434.257 600.657, 433.669 600.069 C 432.661 599.061, 431 598.604, 431 599.334 M 714.500 600.666 C 712.467 602.295, 712.896 602.256, 717.500 600.393 C 718.325 600.059, 719 600.284, 719 600.893 C 719 601.502, 718.298 602, 717.441 602 C 716.565 602, 716.179 602.480, 716.559 603.096 C 717.024 603.848, 717.707 603.721, 718.737 602.692 C 720.317 601.111, 719.708 598.978, 717.691 599.032 C 717.036 599.049, 715.600 599.785, 714.500 600.666 M 585.963 602.281 C 584.018 603.502, 581.538 605.400, 580.451 606.500 C 579.365 607.600, 576.232 610.288, 573.488 612.474 C 570.745 614.659, 565.113 619.834, 560.973 623.974 C 556.833 628.113, 555.933 629.216, 558.973 626.424 C 567.979 618.153, 577.057 610.688, 584.250 605.638 C 587.962 603.032, 591 600.697, 591 600.449 C 591 599.540, 589.413 600.117, 585.963 602.281 M 710.571 602.885 C 710.211 603.468, 708.080 604.495, 705.837 605.167 C 702.280 606.233, 701.601 606.175, 700.537 604.719 C 699.466 603.254, 699.081 603.224, 697.408 604.475 C 695.582 605.839, 695.597 605.876, 697.750 605.334 C 699.129 604.986, 700 605.222, 700 605.942 C 700 606.589, 699.550 606.840, 699 606.500 C 698.450 606.160, 698 606.343, 698 606.906 C 698 607.469, 698.906 608.415, 700.014 609.008 C 701.505 609.805, 701.960 609.782, 701.764 608.918 C 701.619 608.276, 702.063 607.544, 702.751 607.291 C 703.571 606.991, 703.782 607.406, 703.363 608.496 C 702.951 609.571, 703.716 609.241, 705.525 607.564 C 707.244 605.971, 709.003 605.184, 710.079 605.525 C 712.145 606.181, 713.667 604.267, 712.226 602.826 C 711.559 602.159, 711.007 602.179, 710.571 602.885 M 688 605.854 C 688 606.324, 686.875 607.922, 685.500 609.405 C 684.125 610.889, 683 611.823, 683 611.480 C 683 611.137, 682.296 611.561, 681.436 612.421 C 678.594 615.263, 680.928 615.854, 685.752 613.514 C 690.137 611.386, 696.127 606, 694.108 606 C 693.625 606, 692.493 607.125, 691.592 608.500 C 690.691 609.875, 689.102 611, 688.060 611 C 687.019 611, 685.940 611.563, 685.662 612.250 C 685.265 613.236, 685.141 613.231, 685.079 612.229 C 685.036 611.529, 686.138 610.439, 687.528 609.805 C 689.363 608.969, 689.706 608.430, 688.778 607.842 C 687.833 607.242, 687.940 607.027, 689.191 607.015 C 690.121 607.007, 691.160 606.550, 691.500 606 C 691.840 605.450, 691.191 605, 690.059 605 C 688.927 605, 688 605.384, 688 605.854 M 651.954 611.086 C 650.446 613.903, 651.381 614.547, 654.158 612.602 C 655.658 611.551, 655.939 610.995, 654.973 610.985 C 653.694 610.971, 653.698 610.841, 655 610 C 656.288 609.167, 656.258 609.028, 654.785 609.015 C 653.842 609.007, 652.568 609.939, 651.954 611.086 M 448.024 611.917 C 448.037 612.237, 449.885 613.850, 452.132 615.500 C 454.379 617.150, 460.862 623.337, 466.540 629.250 C 472.217 635.163, 477.203 640, 477.618 640 C 478.034 640, 477.116 638.687, 475.578 637.081 C 473.878 635.307, 473.081 633.678, 473.545 632.927 C 473.985 632.215, 473.897 631.946, 473.338 632.291 C 472.804 632.621, 468.196 628.861, 463.098 623.935 C 458 619.009, 452.955 614.511, 451.887 613.939 C 450.818 613.368, 450.162 612.547, 450.428 612.116 C 450.694 611.686, 450.257 611.333, 449.456 611.333 C 448.655 611.333, 448.011 611.596, 448.024 611.917 M 667.242 613.680 C 665.474 614.536, 664.321 615.710, 664.678 616.288 C 665.085 616.947, 664.688 617.094, 663.612 616.681 C 662.593 616.290, 662.144 616.424, 662.507 617.011 C 662.854 617.572, 661.902 618.007, 660.309 618.015 C 658.220 618.027, 657.871 618.265, 658.946 618.946 C 659.792 619.481, 661.077 619.494, 662.043 618.977 C 663.086 618.419, 664.118 618.518, 664.847 619.247 C 665.718 620.118, 666.306 620.092, 667.250 619.141 C 668.252 618.131, 668.153 618.014, 666.750 618.548 C 665.736 618.934, 665 618.748, 665 618.107 C 665 617.498, 666.237 616.993, 667.750 616.985 C 669.811 616.973, 670.136 616.739, 669.048 616.051 C 668.249 615.545, 667.167 615.397, 666.643 615.720 C 666.119 616.044, 666 615.809, 666.378 615.198 C 666.755 614.587, 667.679 614.323, 668.431 614.612 C 669.183 614.900, 670.113 614.626, 670.499 614.002 C 671.653 612.134, 670.641 612.033, 667.242 613.680 M 648.537 616.940 C 648.177 617.523, 648.389 618, 649.009 618 C 649.636 618, 649.240 619.258, 648.119 620.833 C 646.592 622.977, 646.443 623.667, 647.507 623.667 C 648.280 623.667, 648.680 623.292, 648.397 622.833 C 648.114 622.375, 648.385 622, 649 622 C 649.615 622, 649.840 621.550, 649.500 621 C 649.151 620.435, 649.970 620, 651.382 620 C 652.757 620, 654.157 619.555, 654.493 619.011 C 654.854 618.426, 654.411 618.289, 653.407 618.674 C 652.363 619.075, 651.227 618.663, 650.451 617.603 C 649.651 616.508, 648.953 616.266, 648.537 616.940 M 518.651 630.532 C 519.190 631.938, 518.977 632.205, 517.706 631.717 C 515.297 630.793, 514.607 632.719, 516.906 633.950 C 519.569 635.375, 520.318 635.270, 519.663 633.565 C 519.360 632.775, 519.586 631.971, 520.166 631.778 C 520.768 631.577, 520.520 630.847, 519.587 630.072 C 518.162 628.890, 518.043 628.949, 518.651 630.532 M 514 635.107 C 514 635.723, 513.271 635.934, 512.359 635.584 C 511.061 635.086, 510.955 635.240, 511.850 636.319 C 512.473 637.070, 512.649 638.047, 512.241 638.490 C 511.834 638.933, 512.483 639.054, 513.685 638.758 C 515.065 638.419, 516.076 638.757, 516.428 639.674 C 516.735 640.473, 517.470 640.828, 518.061 640.462 C 518.652 640.097, 518.895 639.168, 518.600 638.399 C 518.304 637.629, 518.611 636.997, 519.281 636.994 C 519.952 636.990, 519.211 636.315, 517.636 635.494 C 514.208 633.706, 514 633.684, 514 635.107 M 511.728 681 C 512.029 687.875, 512.470 693.719, 512.708 693.987 C 513.452 694.825, 512.709 672.512, 511.924 670.453 C 511.515 669.379, 511.426 674.125, 511.728 681 M 299.455 702.455 C 296.571 705.339, 296.302 708.937, 298.750 711.886 C 303.220 717.269, 312 714.315, 312 707.427 C 312 700.495, 304.419 697.490, 299.455 702.455 M 718.655 720.829 C 716.390 723.332, 716.576 728.168, 719.039 730.811 C 725.189 737.412, 735.632 728.631, 730.443 721.223 C 728.409 718.319, 721.146 718.076, 718.655 720.829 M 767.073 775.635 C 764.408 779.022, 764.454 781.288, 767.250 784.363 C 770.942 788.424, 773.553 788.600, 777.124 785.030 C 779.717 782.437, 780.130 781.402, 779.611 778.805 C 778.707 774.285, 777.233 773, 772.950 773 C 770.031 773, 768.663 773.613, 767.073 775.635 M 788 785.257 C 788 787.471, 783.352 792.766, 779.792 794.607 C 775.350 796.904, 766.700 796.596, 762.484 793.990 C 760.048 792.485, 759.167 792.270, 759.553 793.278 C 759.897 794.173, 758.150 796.478, 754.945 799.360 L 749.784 804 688.296 804 L 626.807 804 620.566 809.480 L 614.325 814.959 592.912 815.251 L 571.500 815.542 593.046 815.771 L 614.593 816 621.046 810.514 L 627.500 805.028 689.253 805.014 L 751.007 805 756.218 799.977 L 761.429 794.954 765.235 796.477 C 770.394 798.541, 775.313 798.391, 779.945 796.028 C 785.287 793.303, 790.517 786.183, 788.591 784.258 C 788.266 783.933, 788 784.382, 788 785.257 M 249.455 790.455 C 244.995 794.914, 247.038 800.258, 253.711 801.592 C 259.992 802.848, 263.530 794.726, 258.686 790.174 C 255.653 787.326, 252.487 787.422, 249.455 790.455 M 237.408 796.708 C 237.935 806.155, 244.770 812.142, 254.718 811.869 L 259.500 811.738 253.652 810.991 C 244.654 809.841, 239.171 804.721, 237.853 796.236 L 237.117 791.500 237.408 796.708 M 387.481 830.791 C 385.820 832.281, 383.817 834.400, 383.031 835.500 C 382.244 836.600, 383.614 835.594, 386.074 833.264 L 390.548 829.027 424.524 828.750 L 458.500 828.472 424.500 828.277 L 390.500 828.081 387.481 830.791 M 517 835.330 C 517 835.950, 543.335 861.998, 543.647 861.686 C 544.021 861.312, 518.260 835, 517.519 835 C 517.234 835, 517 835.149, 517 835.330 M 615.228 841.946 L 636.957 842.500 644.813 850.312 L 652.669 858.124 678.127 858.035 L 703.585 857.947 705.810 860.957 C 712.484 869.984, 728.229 869.232, 734.099 859.605 C 735.141 857.897, 735.994 855.617, 735.996 854.538 C 735.999 853.316, 735.151 854.238, 733.750 856.980 C 730.900 862.557, 727.427 865.085, 721.733 865.727 C 715.718 866.405, 710.741 864.608, 707.081 860.439 L 704.061 857 678.849 857 L 653.637 857 645.440 849 L 637.244 841 615.372 841.196 L 593.500 841.391 615.228 841.946 M 714.923 844.923 C 710.022 849.825, 711.534 855.563, 718.004 856.613 C 725.575 857.842, 729.898 849.807, 724.545 844.455 C 721.309 841.218, 718.491 841.356, 714.923 844.923 M 577 845.554 C 577 846.125, 588.250 857.756, 602 871.400 C 615.750 885.044, 627 895.820, 627 895.346 C 627 894.873, 615.750 883.242, 602 869.500 C 588.250 855.758, 577 844.983, 577 845.554 M 495.879 850.093 L 491.500 854.186 495.736 851.020 C 499.660 848.087, 501.719 846, 500.688 846 C 500.451 846, 498.287 847.842, 495.879 850.093 M 413.966 869.697 C 408.982 874.892, 408.897 875.051, 413 871.507 C 417.043 868.015, 420.665 864, 419.773 864 C 419.585 864, 416.972 866.564, 413.966 869.697 M 554 868.462 C 554 868.970, 558.500 873.959, 564 879.548 C 569.500 885.137, 574 889.204, 574 888.586 C 574 887.968, 569.500 882.979, 564 877.500 C 558.500 872.021, 554 867.953, 554 868.462 M 470.473 876.250 L 463.500 883.500 470.750 876.527 C 477.484 870.050, 478.457 869, 477.723 869 C 477.571 869, 474.308 872.263, 470.473 876.250 M 340.041 877 C 337.588 879.153, 335.816 881.150, 336.103 881.436 C 336.390 881.723, 338.603 879.943, 341.021 877.479 C 346.417 871.981, 345.994 871.774, 340.041 877 M 311 889.694 C 308.623 890.543, 307 893.151, 307 896.119 C 307 899.163, 311.003 903, 314.180 903 C 316.729 903, 321 898.616, 321 896 C 321 891.652, 315.401 888.121, 311 889.694 M 297.520 900.979 C 298.703 908.865, 309.343 915.412, 317.165 913.069 C 323.323 911.224, 330.053 904.254, 329.978 899.800 C 329.966 899.085, 329.118 900.345, 328.095 902.599 C 321.948 916.132, 302.705 914.609, 297.901 900.209 C 297.098 897.800, 297.056 897.885, 297.520 900.979 M 357.516 913 C 360.305 918.354, 366.860 921.386, 370.668 919.083 C 372.313 918.088, 372.245 917.992, 370 918.143 C 364.639 918.503, 362.776 917.883, 359.811 914.750 C 358.119 912.962, 357.087 912.175, 357.516 913 M 629.156 917.529 C 626.458 920.959, 626.439 923.017, 629.073 926.365 C 633.173 931.578, 642 928.269, 642 921.520 C 642 918.575, 639.035 916.042, 634.780 915.352 C 631.838 914.874, 630.984 915.205, 629.156 917.529 M 617.132 922.500 C 616.828 932.894, 627.842 941.398, 638.505 939.002 C 642.546 938.094, 650 931.483, 650 928.807 C 650 928.108, 648.902 929.151, 647.561 931.125 C 644.230 936.027, 639.042 938.355, 632.785 937.753 C 625.002 937.006, 619.668 932.009, 618.100 923.998 C 617.403 920.437, 617.201 920.125, 617.132 922.500 M 578.315 929.007 C 573.903 930.785, 572.665 936.665, 576 940 C 581.078 945.078, 589.846 940.457, 587.924 933.716 C 586.460 928.580, 583.264 927.013, 578.315 929.007 M 510.473 933.546 C 507.738 936.046, 506.400 937.658, 507.500 937.128 C 509.428 936.199, 516.884 929, 515.919 929 C 515.658 929, 513.208 931.046, 510.473 933.546 M 565.044 939.290 C 565.020 940.274, 565.926 942.896, 567.059 945.115 C 571.907 954.618, 586.170 955.529, 593.512 946.804 C 597.511 942.051, 596.381 941.978, 591.482 946.671 C 587.267 950.710, 586.594 951, 581.433 951 C 572.991 951, 568.975 948.393, 566.429 941.259 C 565.691 939.192, 565.068 938.305, 565.044 939.290 M 392.153 940.750 C 388.964 943.449, 388.526 947.127, 391.016 950.293 C 395.233 955.654, 403 952.872, 403 946 C 403 939.868, 396.763 936.849, 392.153 940.750 M 380.090 950.500 C 379.981 953.136, 383.316 958.516, 386.202 960.359 C 390.635 963.191, 396.277 964.272, 400.582 963.113 C 404.457 962.069, 411 956.815, 411 954.746 C 411 954.188, 410.024 954.970, 408.832 956.486 C 401.547 965.748, 384.393 962.597, 381.034 951.381 C 380.419 949.327, 380.148 949.074, 380.090 950.500 M 543.746 965.250 C 538.937 968.923, 542.149 977, 548.418 977 C 550.418 977, 552.392 976.224, 553.497 975.003 C 555.517 972.771, 555.757 967.617, 553.942 965.431 C 552.479 963.668, 545.968 963.552, 543.746 965.250 M 532.044 974.349 C 531.966 977.637, 534.921 982.440, 538.535 984.900 C 543.741 988.443, 550.722 988.846, 555.953 985.906 C 559.678 983.813, 564.006 978.688, 563.996 976.382 C 563.994 975.897, 563.098 976.967, 562.005 978.759 C 555.065 990.143, 537.855 988.779, 533.505 976.500 C 532.725 974.300, 532.068 973.332, 532.044 974.349 M 454.500 993.719 C 449.278 994.991, 447.280 1001.100, 450.557 1005.777 C 452.560 1008.637, 458.904 1008.869, 461.345 1006.171 C 463.992 1003.246, 463.487 997.529, 460.365 995.073 C 458.916 993.933, 457.453 993.052, 457.115 993.116 C 456.777 993.180, 455.600 993.451, 454.500 993.719 M 439.131 1001.038 C 438.936 1007.798, 442.387 1013.939, 447.962 1016.750 C 450.416 1017.987, 453.669 1019, 455.192 1019 C 459.528 1019, 465.265 1016.167, 467.984 1012.683 L 470.468 1009.500 466.747 1012.708 C 455.720 1022.215, 441.864 1016.787, 439.997 1002.230 C 439.264 996.514, 439.262 996.511, 439.131 1001.038 M 496.223 1033.557 C 494.707 1034.618, 494.005 1036.129, 494.015 1038.307 C 494.035 1042.339, 494.857 1043.615, 498.270 1044.913 C 501.930 1046.304, 505.759 1044.765, 507.043 1041.386 C 509.663 1034.496, 502.392 1029.235, 496.223 1033.557 M 484.532 1042.948 C 485.164 1047.330, 487.029 1050.157, 491.572 1053.623 C 499.004 1059.291, 510.845 1055.928, 515.595 1046.800 C 517.879 1042.411, 517.164 1042.152, 514.713 1046.480 C 511.462 1052.221, 505.881 1055.182, 499.211 1054.706 C 494.686 1054.383, 493.358 1053.779, 490.027 1050.527 C 487.886 1048.435, 485.661 1045.099, 485.084 1043.112 L 484.035 1039.500 484.532 1042.948" stroke="none" fill="#6b5510" fill-rule="evenodd"/></svg>