<?xml version="1.0" standalone="no"?>
<!DOCTYPE svg PUBLIC "-//W3C//DTD SVG 20010904//EN"
 "http://www.w3.org/TR/2001/REC-SVG-20010904/DTD/svg10.dtd">
<svg version="1.0" xmlns="http://www.w3.org/2000/svg"
 width="300.000000pt" height="450.000000pt" viewBox="0 0 300.000000 450.000000"
 preserveAspectRatio="xMidYMid meet">
<metadata>
Created by potrace 1.10, written by Peter Selinger 2001-2011
</metadata>
<g transform="translate(0.000000,450.000000) scale(0.100000,-0.100000)"
fill="#000000" stroke="none">
<path d="M1249 3330 c-129 -78 -250 -152 -269 -164 -19 -13 -128 -81 -242
-151 -115 -69 -218 -135 -230 -145 l-23 -18 3 -559 c2 -307 6 -560 8 -562 2
-2 4 246 4 551 l0 556 500 299 499 300 343 -204 c189 -113 413 -247 498 -298
l155 -93 2 -559 3 -558 -491 -294 c-269 -162 -493 -299 -496 -305 -7 -10 113
54 157 84 14 10 43 28 66 41 184 107 743 446 757 459 18 16 19 51 24 576 l6
559 -25 24 c-14 14 -95 67 -179 118 -479 291 -787 473 -810 478 -21 5 -69 -20
-260 -135z"/>
<path d="M1046 2871 c4 -25 17 -70 31 -100 48 -111 119 -169 255 -211 67 -21
109 -54 127 -103 6 -16 11 -75 11 -131 0 -139 -11 -149 -83 -78 l-53 52 -145
0 -145 0 -52 53 c-29 29 -52 62 -52 73 0 26 -19 44 -46 44 -54 0 -59 -68 -6
-86 18 -5 56 -34 85 -62 l53 -52 145 0 145 0 37 -38 c20 -21 37 -41 37 -45 0
-4 -134 -7 -298 -7 -286 0 -298 1 -310 20 -15 24 -45 26 -66 4 -23 -23 -19
-51 9 -70 24 -15 27 -15 44 0 15 14 54 16 322 16 l304 0 -30 -25 c-28 -22 -39
-24 -135 -25 l-105 0 -90 -90 c-59 -59 -97 -90 -112 -90 -24 0 -53 -24 -53
-45 0 -20 28 -45 50 -45 21 0 55 43 46 58 -3 5 37 50 88 100 l93 92 104 0
c102 0 103 0 136 32 18 17 36 29 39 25 4 -4 -15 -27 -41 -52 -41 -38 -55 -45
-90 -45 -37 0 -46 -6 -120 -81 -44 -44 -90 -85 -103 -90 -17 -6 -22 -16 -20
-31 4 -28 36 -36 44 -11 4 10 45 57 93 106 74 76 90 87 120 87 27 0 47 11 97
56 l64 56 0 -30 c0 -25 -23 -53 -150 -177 -82 -81 -159 -153 -172 -159 -32
-16 -36 -61 -8 -76 33 -18 74 12 65 48 -5 22 5 37 92 124 54 54 101 98 105 98
5 0 8 -15 8 -33 0 -26 -10 -42 -45 -77 l-45 -44 0 -95 c0 -73 -4 -98 -16 -112
-32 -36 5 -90 50 -73 24 9 31 51 12 73 -12 13 -16 38 -16 104 l0 86 40 37 c39
36 40 39 40 104 0 52 4 71 18 83 10 10 22 17 25 17 4 0 7 -56 7 -124 0 -101
-3 -125 -15 -130 -12 -4 -15 -29 -15 -139 0 -107 -3 -137 -15 -147 -21 -17
-19 -44 5 -65 17 -15 24 -16 45 -7 29 13 34 52 10 72 -12 10 -15 39 -15 140 0
101 3 130 15 140 12 10 15 40 15 153 l0 141 43 -42 42 -41 -3 -138 c-2 -108
-6 -141 -18 -155 -35 -38 10 -93 56 -68 24 13 28 68 5 76 -12 5 -15 30 -15
137 l0 131 35 -34 c30 -29 35 -40 35 -81 0 -33 -5 -49 -16 -53 -10 -4 -14 -16
-12 -38 3 -29 7 -33 35 -36 27 -3 35 1 45 22 10 23 8 29 -10 49 -17 18 -22 36
-22 73 0 49 -1 51 -90 142 -80 81 -90 96 -90 128 l0 36 33 -27 c17 -15 87 -79
155 -142 125 -117 142 -144 107 -173 -33 -27 -10 -70 37 -70 34 0 54 31 38 60
-6 11 -15 20 -20 20 -6 0 -10 12 -10 27 0 21 -18 46 -72 100 l-72 73 70 0 c62
0 73 -3 94 -25 21 -22 31 -25 100 -25 42 0 81 -5 87 -11 6 -6 23 -9 39 -7 25
2 29 8 32 35 3 27 -1 35 -22 45 -22 10 -30 8 -49 -9 -16 -15 -38 -21 -84 -22
-56 -2 -64 0 -85 24 -21 25 -27 26 -110 24 -73 -1 -92 2 -108 16 -11 10 -20
22 -20 27 0 4 31 8 69 8 49 0 72 4 81 15 10 12 45 15 196 15 140 0 186 3 196
14 8 8 26 11 46 8 26 -3 33 0 43 21 25 56 -49 96 -76 41 -27 -55 -24 -54 -225
-54 -155 0 -190 -3 -200 -15 -19 -22 -157 -21 -182 2 -18 16 -17 18 24 60 l42
43 171 0 171 0 29 30 c21 22 38 30 62 30 25 0 36 6 44 24 24 51 -36 90 -74 48
-10 -10 -17 -25 -17 -32 0 -8 -12 -27 -27 -42 l-27 -28 -177 0 -177 0 -50 -55
c-47 -51 -51 -53 -66 -36 -12 14 -16 40 -16 119 0 55 5 113 11 129 18 49 60
82 127 103 170 53 271 160 289 307 l5 49 -73 -7 c-104 -10 -178 -41 -244 -100
-85 -78 -135 -199 -135 -326 0 -27 -4 -42 -10 -38 -5 3 -10 26 -10 50 0 230
-160 398 -398 418 l-53 4 7 -46z m207 -32 c29 -15 63 -39 76 -53 23 -24 23
-25 2 -19 -12 3 -24 9 -27 14 -3 5 -16 9 -29 9 -13 0 -25 5 -27 11 -2 6 -17 9
-33 7 -28 -3 -25 -6 37 -35 78 -36 146 -101 182 -172 39 -76 31 -92 -12 -25
-45 69 -132 150 -203 188 -67 37 -62 16 9 -35 66 -48 142 -119 142 -132 0 -15
-66 -1 -116 25 -26 12 -66 44 -89 70 -46 51 -91 148 -81 174 9 23 104 8 169
-27z m656 32 c29 -19 -20 -133 -82 -193 -18 -16 -45 -37 -61 -45 -25 -13 -133
-53 -143 -53 -26 0 82 111 138 141 13 6 37 25 54 41 l30 29 -37 -15 c-85 -34
-210 -148 -246 -223 -22 -46 -36 -42 -17 4 45 108 108 172 216 222 64 29 64
30 27 30 -20 1 -40 -4 -43 -9 -4 -6 -10 -8 -14 -6 -4 3 -20 -4 -37 -15 -41
-27 -52 -24 -23 7 33 36 115 76 169 85 25 3 47 7 50 8 3 0 11 -3 19 -8z
m-1005 -417 c20 -8 21 -43 1 -50 -24 -10 -47 14 -34 37 11 21 11 21 33 13z
m1241 -79 c0 -22 -31 -33 -47 -17 -17 17 -1 44 24 40 15 -2 23 -10 23 -23z
m-615 -186 c0 -10 -4 -21 -10 -24 -5 -3 -10 -26 -10 -49 0 -24 -6 -48 -13 -55
-11 -8 -13 -5 -9 19 5 38 -11 58 -54 66 -42 8 -44 29 -3 38 33 6 59 27 59 47
0 8 7 5 20 -6 11 -10 20 -26 20 -36z m758 29 c-3 -25 -36 -37 -48 -17 -13 20
0 39 27 39 20 0 24 -4 21 -22z m-1518 -42 c0 -14 -4 -27 -9 -30 -15 -10 -41 5
-41 23 0 23 9 31 32 31 12 0 18 -7 18 -24z m1364 -153 c4 -9 1 -23 -7 -30 -7
-8 -21 -11 -30 -7 -17 6 -23 35 -10 47 12 13 41 7 47 -10z m-1189 -148 c0 -22
-31 -33 -47 -17 -17 17 -1 44 24 40 15 -2 23 -10 23 -23z m945 -69 c0 -20 -27
-39 -45 -32 -18 6 -20 37 -3 54 14 14 48 -2 48 -22z m-172 -18 c17 -17 15 -45
-4 -52 -22 -8 -34 1 -34 28 0 35 16 46 38 24z m-530 -56 c4 -28 -24 -40 -45
-19 -14 13 -14 19 -3 32 18 22 44 15 48 -13z m445 -56 c8 -21 -17 -50 -37 -43
-16 6 -22 38 -9 50 11 12 41 7 46 -7z m-275 -110 c-2 -13 -10 -21 -23 -21 -23
0 -32 30 -14 51 16 19 41 -1 37 -30z m132 -91 c10 -12 10 -18 0 -30 -25 -30
-61 -7 -46 30 3 8 12 15 19 15 8 0 20 -7 27 -15z"/>
<path d="M510 1708 c15 -15 186 -119 537 -327 60 -35 124 -74 143 -86 51 -34
171 -105 176 -105 2 0 29 -16 59 -36 29 -20 59 -34 64 -33 10 4 -952 588 -983
598 -6 2 -4 -3 4 -11z"/>
</g>
</svg>
